<svg xmlns="http://www.w3.org/2000/svg" viewBox="0 0 187.03 352.8"><defs><style>.cls-1{fill:none;}.cls-2{opacity:0.4;}.cls-3{fill:#ffab8a;}.cls-3,.cls-4,.cls-5,.cls-6,.cls-7{stroke:#fff;}.cls-3,.cls-4{stroke-width:0.99px;}.cls-10,.cls-24,.cls-4,.cls-5,.cls-6,.cls-8{fill:#cdcdcd;}.cls-5{stroke-width:1.04px;}.cls-6,.cls-7{stroke-width:1px;}.cls-27,.cls-7,.cls-9{fill:#ff4100;}.cls-16,.cls-22,.cls-26,.cls-8,.cls-9{font-size:16px;}.cls-10,.cls-11,.cls-20,.cls-24,.cls-27,.cls-8,.cls-9{font-family:MyriadPro-Cond, Myriad Pro;}.cls-11,.cls-17,.cls-26,.cls-8,.cls-9{letter-spacing:0.01em;}.cls-10,.cls-11,.cls-20,.cls-24,.cls-27{font-size:12px;}.cls-10{letter-spacing:0.02em;}.cls-11,.cls-20{fill:#fff;}.cls-12{letter-spacing:0em;}.cls-13{letter-spacing:-0.05em;}.cls-14{letter-spacing:-0.04em;}.cls-15{letter-spacing:0.01em;}.cls-16{letter-spacing:-0.04em;}.cls-18{letter-spacing:0.01em;}.cls-19{letter-spacing:-0.02em;}.cls-20{letter-spacing:-0.03em;}.cls-21{letter-spacing:-0.05em;}.cls-23{letter-spacing:0em;}.cls-24,.cls-27{letter-spacing:0em;}.cls-25{letter-spacing:0.01em;}</style></defs><title>Asset 5</title><g id="Layer_2" data-name="Layer 2"><g id="Graphic_EN" data-name="Graphic EN"><line class="cls-1" x1="18.22" y1="293.69" x2="28.03" y2="293.69"/><line class="cls-1" x1="18.22" y1="324.77" x2="28.03" y2="324.77"/><line class="cls-1" x1="18.22" y1="262.68" x2="28.03" y2="262.68"/><line class="cls-1" x1="18.22" y1="231.67" x2="28.03" y2="231.67"/><line class="cls-1" x1="18.22" y1="200.66" x2="28.03" y2="200.66"/><line class="cls-1" x1="18.22" y1="169.65" x2="28.03" y2="169.65"/><line class="cls-1" x1="18.22" y1="138.65" x2="28.03" y2="138.65"/><line class="cls-1" x1="18.22" y1="107.64" x2="28.03" y2="107.64"/><g class="cls-2"><rect class="cls-3" x="119.6" y="51.89" width="66.93" height="54.56"/></g><rect class="cls-3" x="119.6" y="106.45" width="66.93" height="52.7"/><rect class="cls-4" x="35.66" y="91.57" width="66.93" height="123.38"/><rect class="cls-5" x="35.66" y="33.29" width="66.93" height="58.28"/><rect class="cls-6" x="35.66" y="214.95" width="66.93" height="109.74"/><rect class="cls-7" x="119.6" y="159.15" width="66.93" height="165.54"/><text class="cls-8" transform="translate(45.96 348.8)">HEMFRID</text><text class="cls-9" transform="translate(135.23 348.8)">SERVIA</text><text class="cls-10" transform="translate(4.86 297.01)">50</text><text class="cls-10" transform="translate(0 266)">100</text><text class="cls-10" transform="translate(9.72 328.15)">0</text><text class="cls-10" transform="translate(0 234.99)">150</text><text class="cls-10" transform="translate(0 203.98)">200</text><text class="cls-10" transform="translate(0 172.98)">250</text><text class="cls-10" transform="translate(0 141.97)">300</text><text class="cls-10" transform="translate(0 110.96)">350</text><text class="cls-11" transform="translate(42.21 237.7)">MINIM<tspan class="cls-12" x="25.33" y="0">U</tspan><tspan x="30.86" y="0">M </tspan><tspan class="cls-13" x="40.18" y="0">P</tspan><tspan class="cls-14" x="44.4" y="0">A</tspan><tspan class="cls-15" x="49.12" y="0">Y</tspan><tspan class="cls-16"><tspan x="6.19" y="15.57">1</tspan><tspan class="cls-17" x="11.71" y="15.57">77 </tspan><tspan class="cls-18" x="27.03" y="15.57">k</tspan><tspan class="cls-19" x="32.79" y="15.57">r</tspan><tspan class="cls-17" x="36.51" y="15.57">/h</tspan></tspan></text><text class="cls-20" transform="translate(62.3 56.14)">V<tspan class="cls-21" x="4.67" y="0">A</tspan><tspan class="cls-17" x="9.29" y="0">T</tspan></text><text class="cls-11" transform="translate(126.14 182.13)">MINIM<tspan class="cls-12" x="25.33" y="0">U</tspan><tspan x="30.86" y="0">M </tspan><tspan class="cls-13" x="40.18" y="0">P</tspan><tspan class="cls-14" x="44.4" y="0">A</tspan><tspan class="cls-15" x="49.12" y="0">Y</tspan><tspan class="cls-22"><tspan x="5.79" y="15.57">265 </tspan><tspan class="cls-18" x="27.43" y="15.57">k</tspan><tspan class="cls-19" x="33.19" y="15.57">r</tspan><tspan x="36.91" y="15.57">/h</tspan></tspan></text><text class="cls-11" transform="translate(135.37 129.28)">PREMI<tspan class="cls-23" x="24.12" y="0">U</tspan><tspan x="29.65" y="0">M</tspan><tspan class="cls-22"><tspan x="6.14" y="15.57">33%</tspan></tspan></text><text class="cls-20" transform="translate(146.24 74.83)">V<tspan class="cls-21" x="4.67" y="0">A</tspan><tspan class="cls-17" x="9.29" y="0">T</tspan></text><text class="cls-24" transform="translate(37.5 10.04)">MA<tspan class="cls-17" x="12.48" y="0">XIM</tspan><tspan class="cls-23" x="27.12" y="0">U</tspan><tspan class="cls-25" x="32.65" y="0">M PRICE</tspan><tspan class="cls-26"><tspan x="10.5" y="15.57">470 </tspan><tspan class="cls-18" x="32.13" y="15.57">k</tspan><tspan class="cls-19" x="37.89" y="15.57">r</tspan><tspan x="41.62" y="15.57">/h</tspan></tspan></text><text class="cls-27" transform="translate(121.44 28.64)">MA<tspan class="cls-17" x="12.48" y="0">XIM</tspan><tspan class="cls-23" x="27.12" y="0">U</tspan><tspan class="cls-25" x="32.65" y="0">M PRICE</tspan><tspan class="cls-26"><tspan x="10.5" y="15.57">440 </tspan><tspan class="cls-18" x="32.13" y="15.57">k</tspan><tspan class="cls-19" x="37.89" y="15.57">r</tspan><tspan x="41.62" y="15.57">/h</tspan></tspan></text><text class="cls-10" transform="translate(0 79.95)">400</text><text class="cls-10" transform="translate(0 48.95)">450</text><text class="cls-10" transform="translate(0 17.95)">500</text><text class="cls-11" transform="translate(50.71 114.01)">PREMI<tspan class="cls-23" x="24.12" y="0">U</tspan><tspan x="29.65" y="0">M</tspan><tspan class="cls-22"><tspan x="2.98" y="15.57">112%</tspan></tspan></text></g></g></svg>