<svg xmlns="http://www.w3.org/2000/svg" xmlns:xlink="http://www.w3.org/1999/xlink" viewBox="0 0 195 159"><defs><style>.cls-1{fill:url(#linear-gradient);}.cls-2,.cls-3{fill:#fff;}.cls-2{fill-rule:evenodd;}</style><linearGradient id="linear-gradient" x1="97.5" y1="158.44" x2="97.5" y2="0.33" gradientUnits="userSpaceOnUse"><stop offset="0" stop-color="#fff"/><stop offset="0.05" stop-color="#ffefe9"/><stop offset="0.15" stop-color="#ffc4b0"/><stop offset="0.29" stop-color="#ff8156"/><stop offset="0.42" stop-color="#ff4100"/><stop offset="1" stop-color="#ff4100"/></linearGradient></defs><g id="Layer_2" data-name="Layer 2"><g id="Background"><rect class="cls-1" width="195" height="159"/><path class="cls-2" d="M122,47.82c4.5-2.12,4.39,4.83.66,6.75-4,2.08-4.67-2.92-2.38-5.51A4.72,4.72,0,0,1,122,47.82Z"/><path class="cls-2" d="M121,59.75c.07,0,.08,0,.17,0a38.39,38.39,0,0,1,.5,3.93c.52,2.49,1.87,4.56,5.3,3.37a10.54,10.54,0,0,0,3.59-2.28c.78-.7,1.58-2,2.75-2,.81,1-.46,2.58-1.11,3.5a34.76,34.76,0,0,1-2.65,3.11c-1.78,1.91-4.3,4.72-7.4,5.55-5.08,1.36-5.54-4.58-3.91-10.17C118.71,63.15,119.68,60.59,121,59.75Z"/><path class="cls-2" d="M147.32,53c.55.67-.15,1.85-.08,2.73a2.2,2.2,0,0,0,2.42,2.22c2.59-.43,3.39-3.54,5.72-3.66.09.94-.84,2-1.49,3-1.61,2.32-4.07,5.7-6.67,7.1-3.77,2-4.34-.42-4.22-3.74-.69.16-1.22,1-1.65,1.54-1.39,1.76-3.19,4.4-5.5,5.48-3.35,1.57-4.92-.4-4.3-3.8a18.92,18.92,0,0,1,1.78-4.87c2.27-4.2,7.16-9.52,11.54-11.63,2-1,4.34-.72,4.28,1.18a4.9,4.9,0,0,1-2.78,3.89c-1.6.52-1.83-1-3.05-1.18-3-.33-5.59,3.54-5.32,6.57.16,1.89,2.57,2.19,4.9.47A7.69,7.69,0,0,0,145,55.45C145.49,54.61,145.91,53.25,147.32,53Z"/><path class="cls-2" d="M119.26,62.18c.91,1.28-.72,3.09-1.9,4.34a20.25,20.25,0,0,1-2,1.83,13.07,13.07,0,0,0-2.08,1.77,11.92,11.92,0,0,0-.72,2.38c-.92,3.14-2.22,7-6,8.27-4.06,1.41-4.91-2.45-4.74-7.17-.6-.42-1.61.21-1.78-.47-.24-.9,1-2.56,1.52-3.47.64-1.25,1.15-2.85,2.82-3.17,3-.58.91,7.71,5.65,5.71a2,2,0,0,0,1.43-1.88c0-.49-1.22-.69-1.67-1A2.91,2.91,0,0,1,108.27,66,15.26,15.26,0,0,1,112,59.88c1-.85,1,1.1,1.21,1.8.35,1.41,2.65,2.42,4.68,1.46C118.4,62.9,118.47,62.42,119.26,62.18Z"/><path class="cls-2" d="M90,73.56c.91-.55,1.56-1.82,2.39-2.87,1.05-1.33,2.51-3.2,4.63-3.29.93,0,1.27.75,2,1.13.39-.3,1.09-.63,1.42-.48.31.72-.36,1.59-.79,2.24a25,25,0,0,1-1.52,2.07c-.92,1.12-3.16,4-4.91,3.8-.88-.08-1.13-1.4-2-1.21-2.54.55-1.08,4.13-.79,4.94.38,1.08,1.15,2.48.84,3.74s-2,2.58-3.39,3.2c-1.67.73-3.73,1.12-3.95,0-.19-.91.7-3,1.09-4.48.57-2.1,1.9-5.2.24-5.42-1.07-.13-2.62,1.3-3.83.89.41-1.94,3.35-6,5.63-7.57,1-.66,2.25-.61,2.54,0C90,71.17,89.45,72.78,90,73.56Z"/><path class="cls-2" d="M53.73,99.12c3.85-1.58,6.52-3.93,9.27-6.39a13,13,0,0,1,2.8-2.28c.92.6.13,1.49-.58,2.26-4.93,5.36-10.74,9.24-17.9,13.4a75.85,75.85,0,0,1-12.58,6c-4.71,1.64-9,2.34-10.43,0a4,4,0,0,1-.45-2.44c.29-1.69,2.71-4.06,4-5.43a7.72,7.72,0,0,1,1.64-1.52c.87-.35,2.27.3,3.08.51a24.21,24.21,0,0,0,9.8.74,14.85,14.85,0,0,0,8-3.52c2.08-2,4.38-5.92,3.49-8.73a3.56,3.56,0,0,0-1.17-1.6c-2.08-1.82-6.09-2.11-9.6-2.81s-7-1.55-7.92-4.85c-1-3.79,2-8.11,4.22-11.2A65.26,65.26,0,0,1,53,57.82a39.59,39.59,0,0,1,8.92-5.54c3.66-1.48,6.82-1.54,5.92,2.43a11.65,11.65,0,0,1-3.19,5.16c-.77.78-2.62,2.43-3.13,1.57s.65-1.67.61-2.72c-.09-1.9-3-1.49-5.53-.42a26.94,26.94,0,0,0-6.31,4,29.63,29.63,0,0,0-6.91,7.82A12.23,12.23,0,0,0,42,73.36a4.62,4.62,0,0,0,1.37,3.09c3.41,3.7,10.2,3,14.63,5.47a5.35,5.35,0,0,1,3,5.79C60.65,90,59.17,92,57.9,93.79,56.5,95.73,55.11,97,53.73,99.12Z"/><path class="cls-2" d="M71.89,86.31c1.18,2.38,5.55,1.09,8-1.58,1.26-1.41,1.9-3.21,3.55-3.72.18,1.35-1,2.91-1.8,4.08-2.33,3.49-5.63,7.77-10.48,9.4-3.91,1.31-6.23-.08-5.64-4.67a24.42,24.42,0,0,1,3.74-9.41C70.71,78,73.43,74,76.63,72.8c2.54-1,2.45,1.09,1.65,3.36C77,79.91,74,83.15,71.89,86.31Zm2.75-7.51c.13-1-.17-1.63-1-1.38-2.61.84-3.43,5.76-2.46,7.64C72.64,83.57,74.37,81,74.64,78.8Z"/><path class="cls-3" d="M162.35,44.76v.8h-1.12v3.18h-1V45.56h-1.1v-.8Zm3.93,4-.1-1.9c0-.4,0-.83,0-1.34h0c-.11.45-.25.94-.37,1.34l-.57,1.83h-.75l-.52-1.86c-.09-.39-.2-.86-.31-1.31h0c0,.46,0,.92,0,1.32l-.09,1.92h-.88l.27-4h1.32l.45,1.56c.1.34.18.74.28,1.13h0c.11-.4.2-.81.31-1.14l.48-1.55H167l.26,4Z"/></g><g id="Copy_EN" data-name="Copy EN"><path class="cls-3" d="M53.8,21.69a4.9,4.9,0,0,0,2.49.7c1.43,0,2.26-.74,2.26-1.83s-.58-1.59-2-2.14c-1.76-.62-2.85-1.55-2.85-3.06,0-1.68,1.4-2.92,3.5-2.92a4.93,4.93,0,0,1,2.38.52l-.39,1.14a4.18,4.18,0,0,0-2-.51c-1.48,0-2,.88-2,1.61,0,1,.66,1.5,2.15,2.07C59,18,60,18.87,60,20.45s-1.21,3.11-3.77,3.11a5.48,5.48,0,0,1-2.75-.7Z"/><path class="cls-3" d="M70,23.39,67.28,12.6h1.48L70,18.06c.31,1.35.6,2.69.79,3.73h0c.17-1.07.51-2.36.88-3.74l1.44-5.45h1.45L76,18.07c.3,1.29.59,2.56.76,3.7h0c.21-1.18.51-2.38.85-3.73L79,12.6h1.43L77.39,23.39H75.94l-1.36-5.61a33.86,33.86,0,0,1-.71-3.53h0A31,31,0,0,1,73,17.78l-1.53,5.61Z"/><path class="cls-3" d="M93.76,18.33H89.58v3.9h4.67v1.16H88.18V12.6H94v1.16H89.58v3.42h4.18Z"/><path class="cls-3" d="M102.43,12.75a18.54,18.54,0,0,1,3-.23,6.17,6.17,0,0,1,4.37,1.34,5,5,0,0,1,1.53,3.87,5.78,5.78,0,0,1-1.55,4.2A6.7,6.7,0,0,1,105,23.49a22.82,22.82,0,0,1-2.53-.12Zm1.4,9.55a11.26,11.26,0,0,0,1.4.06c3,0,4.59-1.65,4.59-4.57,0-2.58-1.42-4.16-4.36-4.16a8.75,8.75,0,0,0-1.63.14Z"/><path class="cls-3" d="M125.05,18.33h-4.18v3.9h4.67v1.16h-6.07V12.6h5.83v1.16h-4.43v3.42h4.18Z"/><path class="cls-3" d="M133.72,23.39V12.6h1.53l3.46,5.46a32.31,32.31,0,0,1,1.92,3.51l0,0c-.13-1.44-.16-2.75-.16-4.43V12.6h1.31V23.39h-1.41L137,17.92a36.5,36.5,0,0,1-2-3.61l0,0c.09,1.37.1,2.67.1,4.45v4.61Z"/></g></g></svg>