<svg xmlns="http://www.w3.org/2000/svg" viewBox="0 0 143.27 54.23"><defs><style>.cls-1,.cls-2{fill:#fff;}.cls-1{fill-rule:evenodd;}</style></defs><g id="Layer_2" data-name="Layer 2"><g id="Application_View" data-name="Application View"><g id="Topground_Locked" data-name="Topground Locked"><path class="cls-1" d="M100.75,18.63c4.68-.63,5,6.76,1.14,7.47-4.18.76-5.18-4.82-2.9-6.76A3.07,3.07,0,0,1,100.75,18.63Z"/><path class="cls-1" d="M100.4,31c.07,0,.08.08.17.08.51,1.48.44,3,.79,4.4.71,2.84,2.29,5.55,5.89,5.53a7.22,7.22,0,0,0,3.68-1.14c.8-.47,1.56-1.62,2.81-1.15.94,1.34-.32,2.6-1,3.34a19.29,19.29,0,0,1-2.64,2.37c-1.77,1.4-4.28,3.49-7.55,3.25-5.34-.39-6.21-6.91-4.83-12.29C98.17,33.82,99.05,31.44,100.4,31Z"/><path class="cls-1" d="M128.59,33.3c.63.92-.05,1.93.08,2.9a3.86,3.86,0,0,0,2.73,3.25c2.74.47,3.39-2.57,5.88-1.85.16,1-.76,1.86-1.41,2.64-1.56,1.9-4,4.62-6.67,5.18-3.89.8-4.66-2-4.74-5.53-.74-.08-1.25.63-1.67,1-1.38,1.38-3.13,3.54-5.53,3.86-3.48.47-5.28-2.21-4.83-5.62A13.67,13.67,0,0,1,114,34.62c2.16-3.68,7-7.59,11.59-8.26,2.08-.31,4.6.81,4.65,2.81,0,1.41-1.19,3.19-2.72,3.16-1.68,0-2-1.78-3.34-2.37-3.22-1.45-5.74,1.75-5.26,5.1.3,2.08,2.89,3.28,5.26,2.28a4.57,4.57,0,0,0,2.11-2.2C126.73,34.4,127.09,33.1,128.59,33.3Z"/><path class="cls-1" d="M99.38,32.39c.88,1.79-.86,3-2.13,3.77a12,12,0,0,1-2.12,1,8.21,8.21,0,0,0-2.21.94,8.8,8.8,0,0,0-.83,2.21c-1.07,2.94-2.56,6.43-6.49,6.08-4.23-.37-5-4.89-4.62-9.88-.6-.72-1.66-.51-1.81-1.32-.21-1.07,1.18-2.25,1.7-3,.7-1,1.3-2.52,3-2.09,3.11.76.65,8.68,5.61,8.74.92,0,1.59-.47,1.54-1.36,0-.55-1.23-1.3-1.68-1.83-.84-1-2-2.51-1.44-4.29A9.42,9.42,0,0,1,92,26.57c1-.47,1,1.65,1.17,2.49a5.31,5.31,0,0,0,4.76,3.72C98.46,32.76,98.55,32.29,99.38,32.39Z"/><path class="cls-1" d="M68.38,33c.94-.25,1.56-1.38,2.37-2.19,1-1.05,2.48-2.52,4.74-1.85,1,.29,1.41,1.27,2.2,1.93a1.73,1.73,0,0,1,1.49,0c.38.89-.28,1.57-.7,2.11A14.8,14.8,0,0,1,77,34.66c-.91.86-3.13,3.09-5,2.28-1-.4-1.3-1.91-2.19-2-2.68-.32-.89,4-.53,5,.48,1.29,1.39,3.06,1.14,4.3s-2,2.05-3.42,2.2c-1.73.18-3.91-.15-4.22-1.41-.26-1,.55-3,.88-4.39.47-2.05,1.69-4.88-.09-5.71-1.16-.53-2.72.44-4-.44.32-1.93,3.19-5.25,5.53-6.06a2.4,2.4,0,0,1,2.73,1C68.24,30.44,67.76,32,68.38,33Z"/><path class="cls-1" d="M31.27,47.19c4-.3,6.72-1.85,9.49-3.48a8.2,8.2,0,0,1,2.85-1.42c1,1,.24,1.64-.47,2.21-4.92,3.94-10.89,6-18.28,7.83a56.52,56.52,0,0,1-13,1.9c-4.93.05-9.51-.77-11.16-3.8A5.34,5.34,0,0,1,0,47.67c.21-1.7,2.63-3.36,4-4.36.41-.31,1.17-1,1.66-1C6.54,42.23,8.09,43.43,9,44A33.4,33.4,0,0,0,19.48,48.3c3.15.6,6.2.47,8.31-.87s4.3-4.75,3.16-8.07a6.74,6.74,0,0,0-1.34-2.14c-2.34-2.7-6.65-4.46-10.44-6.49s-7.64-4.22-8.79-8.07c-1.31-4.4,1.62-7.95,3.8-10.44A38.44,38.44,0,0,1,27.79,2.73,26.72,26.72,0,0,1,37,0c3.82-.27,7.19.82,6.48,4.74a7.2,7.2,0,0,1-3.08,4.36c-.77.56-2.64,1.66-3.25.55-.5-.93.6-1.55.48-2.69-.22-2.07-3.29-2.68-5.93-2.45a17.92,17.92,0,0,0-6.49,2,17.43,17.43,0,0,0-6.88,5.86,8.27,8.27,0,0,0-1.19,3,7.47,7.47,0,0,0,1.66,3.79c3.88,5.2,11.09,6.92,16,11.16,1.91,1.65,3.88,4.18,3.56,7.28-.23,2.28-1.68,4-2.93,5.38S32.61,45.47,31.27,47.19Z"/><path class="cls-1" d="M49.86,40.07c1.41,3,6,3.17,8.39,1.19,1.26-1,1.83-2.74,3.56-2.69.28,1.51-.9,2.75-1.66,3.72-2.27,2.88-5.52,6.26-10.6,6.25-4.1,0-6.67-2.35-6.33-7a17.07,17.07,0,0,1,3.4-8.7c1.44-2.05,4.1-5.28,7.44-5.46,2.65-.14,2.68,2.06,2,4.2C54.86,35.06,51.94,37.46,49.86,40.07Zm2.46-7c.06-1.07-.29-1.81-1.11-1.82-2.74-.05-3.3,4.92-2.14,7.28A8.24,8.24,0,0,0,52.32,33Z"/><path class="cls-2" d="M140.35,26.71v.37h-.73V29h-.45V27.08h-.73v-.37ZM142.82,29l-.08-1.34c0-.18,0-.4,0-.64h0c-.05.2-.12.47-.19.68L142.09,29h-.47l-.41-1.31-.16-.64h0c0,.21,0,.43,0,.64L140.92,29h-.43l.16-2.28h.68l.4,1.11c.05.18.09.35.15.58h0l.16-.57.39-1.12h.66l.17,2.28Z"/></g></g></g></svg>