<svg xmlns="http://www.w3.org/2000/svg" xmlns:xlink="http://www.w3.org/1999/xlink" viewBox="0 0 207 166.5"><defs><style>.cls-1{fill:url(#linear-gradient);}.cls-2,.cls-3{fill:#fff;}.cls-2{fill-rule:evenodd;}</style><linearGradient id="linear-gradient" x1="103.5" y1="165.91" x2="103.5" y2="0.35" gradientUnits="userSpaceOnUse"><stop offset="0" stop-color="#fff"/><stop offset="0.05" stop-color="#ffefe9"/><stop offset="0.15" stop-color="#ffc4b0"/><stop offset="0.29" stop-color="#ff8156"/><stop offset="0.42" stop-color="#ff4100"/><stop offset="1" stop-color="#ff4100"/></linearGradient></defs><g id="Layer_2" data-name="Layer 2"><g id="_1._Home_Page" data-name="1. Home Page"><g id="Background_kopia" data-name="Background kopia"><rect class="cls-1" width="207" height="166.5"/><path class="cls-2" d="M134.61,66.91c5.5-.75,5.88,7.94,1.34,8.77-4.91.9-6.09-5.66-3.41-8A3.65,3.65,0,0,1,134.61,66.91Z"/><path class="cls-2" d="M134.19,81.46c.09,0,.11.11.21.11.59,1.73.52,3.52.93,5.16.84,3.35,2.69,6.53,6.92,6.5a8.47,8.47,0,0,0,4.33-1.34c.93-.54,1.83-1.9,3.31-1.34,1.09,1.57-.38,3-1.14,3.92a22.26,22.26,0,0,1-3.1,2.79c-2.08,1.65-5,4.1-8.88,3.82-6.28-.46-7.3-8.12-5.67-14.45C131.57,84.77,132.61,82,134.19,81.46Z"/><path class="cls-2" d="M167.33,84.15c.74,1.08-.05,2.27.11,3.4.23,1.75,1.59,3.55,3.2,3.82,3.22.56,4-3,6.92-2.16.18,1.23-.9,2.18-1.66,3.09-1.84,2.24-4.68,5.44-7.84,6.1-4.58.94-5.48-2.38-5.58-6.51-.86-.09-1.46.74-2,1.24-1.62,1.62-3.68,4.17-6.5,4.54-4.09.55-6.21-2.6-5.68-6.6a15.87,15.87,0,0,1,1.86-5.37c2.54-4.32,8.28-8.92,13.62-9.71,2.45-.36,5.41,1,5.48,3.31,0,1.65-1.41,3.75-3.2,3.71-2,0-2.38-2.09-3.93-2.79-3.79-1.7-6.76,2.06-6.19,6,.35,2.45,3.4,3.86,6.19,2.69a5.37,5.37,0,0,0,2.48-2.58C165.16,85.44,165.58,83.91,167.33,84.15Z"/><path class="cls-2" d="M133,83.08c1,2.1-1,3.5-2.5,4.43a13.85,13.85,0,0,1-2.5,1.21,9.78,9.78,0,0,0-2.6,1.1,11.09,11.09,0,0,0-1,2.61c-1.26,3.45-3,7.55-7.63,7.15-5-.44-5.84-5.76-5.43-11.62-.7-.85-2-.61-2.13-1.55-.24-1.26,1.39-2.65,2-3.54.83-1.23,1.53-3,3.55-2.46,3.66.9.76,10.21,6.59,10.27,1.08,0,1.87-.55,1.81-1.59,0-.65-1.45-1.53-2-2.16-1-1.18-2.34-3-1.7-5a11,11,0,0,1,4.8-5.66c1.2-.55,1.2,1.94,1.38,2.93a6.24,6.24,0,0,0,5.59,4.37C131.92,83.51,132,83,133,83.08Z"/><path class="cls-2" d="M96.56,83.79c1.1-.3,1.83-1.63,2.78-2.59,1.23-1.22,2.92-3,5.58-2.16,1.16.34,1.65,1.48,2.58,2.27a2,2,0,0,1,1.76,0c.43,1-.34,1.84-.83,2.48a17.22,17.22,0,0,1-1.76,2c-1.06,1-3.67,3.63-5.88,2.68-1.12-.48-1.53-2.25-2.58-2.37-3.15-.39-1,4.74-.62,5.88.56,1.52,1.63,3.6,1.34,5.06s-2.29,2.4-4,2.58c-2,.21-4.59-.18-5-1.65-.3-1.23.65-3.49,1-5.16.56-2.41,2-5.74-.1-6.71-1.36-.63-3.2.51-4.75-.52.37-2.27,3.75-6.18,6.5-7.12a2.79,2.79,0,0,1,3.2,1.13C96.39,80.78,95.83,82.58,96.56,83.79Z"/><path class="cls-2" d="M52.93,100.48c4.72-.35,7.89-2.18,11.16-4.09a9.44,9.44,0,0,1,3.35-1.68c1.2,1.15.28,1.94-.56,2.61-5.79,4.63-12.8,7-21.49,9.2a66.61,66.61,0,0,1-15.34,2.24c-5.8.06-11.18-.91-13.12-4.47a6.32,6.32,0,0,1-.74-3.25c.24-2,3.09-4,4.65-5.12.48-.36,1.37-1.17,1.95-1.21,1.07-.07,2.88,1.35,3.91,2a39.17,39.17,0,0,0,12.37,5.11c3.7.71,7.28.55,9.77-1s5-5.58,3.72-9.49A7.78,7.78,0,0,0,51,88.76c-2.75-3.17-7.81-5.25-12.27-7.63-4.28-2.28-9-5-10.33-9.49-1.54-5.18,1.9-9.34,4.47-12.27,4.25-4.86,9.78-8.4,16-11.16A31.33,31.33,0,0,1,59.62,45c4.5-.31,8.46,1,7.63,5.58a8.43,8.43,0,0,1-3.63,5.12c-.9.66-3.1,1.95-3.81.65-.6-1.09.7-1.82.56-3.16-.26-2.44-3.87-3.15-7-2.88a20.8,20.8,0,0,0-7.62,2.32C43,54,39.48,56.56,37.67,59.55a9.89,9.89,0,0,0-1.39,3.54c0,1.42,1.1,3.32,1.95,4.46,4.56,6.11,13,8.14,18.79,13.12,2.24,1.94,4.56,4.91,4.19,8.55-.28,2.69-2,4.66-3.45,6.33C56.15,97.39,54.51,98.45,52.93,100.48Z"/><path class="cls-2" d="M74.79,92.11c1.65,3.49,7,3.73,9.85,1.39,1.49-1.23,2.16-3.22,4.19-3.16.33,1.77-1.06,3.23-2,4.37-2.67,3.4-6.49,7.37-12.47,7.35-4.81,0-7.83-2.75-7.44-8.28a20.19,20.19,0,0,1,4-10.23c1.7-2.41,4.82-6.21,8.74-6.42,3.12-.16,3.16,2.42,2.33,4.93C80.66,86.22,77.22,89,74.79,92.11Zm2.88-8.28c.08-1.25-.34-2.12-1.3-2.14-3.22-.06-3.88,5.78-2.51,8.56C75.51,89,77.5,86.51,77.67,83.83Z"/><path class="cls-3" d="M181.31,75.71v.54h-1.05V79h-.64V76.25h-1.05v-.54ZM184.83,79l-.12-1.92c0-.25,0-.56,0-.91h0c-.08.29-.18.67-.27,1l-.59,1.82h-.67l-.59-1.86c-.06-.26-.15-.64-.23-.93h0c0,.3,0,.61,0,.91L182.12,79h-.62l.24-3.26h1l.56,1.6c.08.25.14.49.22.82h0c.09-.3.16-.57.23-.81l.56-1.61h.94l.25,3.26Z"/></g><g id="Copy_SE" data-name="Copy SE"><path class="cls-3" d="M55,21.08a5.42,5.42,0,0,0,2.68.74c1.51,0,2.38-.8,2.38-2s-.64-1.71-2.16-2.32c-1.84-.71-3.08-1.78-3.08-3.45,0-1.91,1.54-3.33,3.91-3.33a5.45,5.45,0,0,1,2.59.57l-.45,1.4a4.35,4.35,0,0,0-2.19-.56c-1.54,0-2.15.92-2.15,1.72,0,1.09.71,1.61,2.3,2.27,2,.84,2.95,1.87,2.95,3.57,0,1.92-1.41,3.52-4.21,3.52a6.1,6.1,0,0,1-3-.74Z"/><path class="cls-3" d="M72.67,23.07,68.89,10.93h1.84l1.73,5.83c.47,1.57.89,3.08,1.2,4.52h0c.31-1.43.77-3,1.26-4.51l1.85-5.84h1.82L74.55,23.07Z"/><path class="cls-3" d="M92.35,17.44H87.93v4.21h4.95v1.42H86.23V10.93h6.39v1.42H87.93V16h4.42Z"/><path class="cls-3" d="M101.11,11.1a15.77,15.77,0,0,1,3-.26,5,5,0,0,1,3.46,1,3,3,0,0,1,1,2.34,3.2,3.2,0,0,1-2.22,3.09v0A3,3,0,0,1,108,19.76a21.37,21.37,0,0,0,.9,3.31h-1.75a16.18,16.18,0,0,1-.78-2.91c-.34-1.65-1-2.25-2.3-2.29h-1.26v5.2h-1.7Zm1.7,5.49h1.38c1.58,0,2.58-.89,2.58-2.24s-1-2.19-2.58-2.19a5.69,5.69,0,0,0-1.38.12Z"/><path class="cls-3" d="M118.6,10.93V23.07h-1.7V10.93Z"/><path class="cls-3" d="M136.4,22.55a10.4,10.4,0,0,1-3.54.64,5.92,5.92,0,0,1-4.35-1.55,6.23,6.23,0,0,1-1.65-4.54,5.94,5.94,0,0,1,6.31-6.29,7.11,7.11,0,0,1,2.89.53l-.4,1.39a5.72,5.72,0,0,0-2.51-.49c-2.65,0-4.51,1.68-4.51,4.77s1.74,4.77,4.3,4.77a4.3,4.3,0,0,0,1.8-.28V18H132.5V16.62h3.9Z"/><path class="cls-3" d="M151.09,17.44h-4.43v4.21h5v1.42H145V10.93h6.39v1.42h-4.69V16h4.43Z"/></g></g></g></svg>