<svg xmlns="http://www.w3.org/2000/svg" viewBox="0 0 13.12 13.2"><defs><style>.cls-1{fill:#fff;}</style></defs><g id="Layer_2" data-name="Layer 2"><g id="Background"><path class="cls-1" d="M11.89,4l.91-.91a1.05,1.05,0,0,0,0-1.5L11.51.31a1.07,1.07,0,0,0-1.5,0l-.92.91Z"/><path class="cls-1" d="M11,4.92,8.2,2.12,2.14,8.18a1,1,0,0,0-.28.5L.1,12.59a.37.37,0,0,0,0,.5.36.36,0,0,0,.51,0l4.16-2h0A.93.93,0,0,0,4.93,11ZM3.75,7.68l4-4a.37.37,0,0,1,.52.52l-4,4a.37.37,0,0,1-.52,0A.36.36,0,0,1,3.75,7.68Zm0,3.23-1.82.85H1.69l-.05,0h0l0,0,0,0,0,0,0,0,0,0,0,0h0l0-.05v0a.09.09,0,0,1,0-.05h0v-.08l0,0v0L2.3,9.45a.37.37,0,0,1,.49-.18A.37.37,0,0,1,3,9.76l-.42.91.91-.43a.37.37,0,0,1,.31.67Z"/></g></g></svg>