<svg width="171" height="65" viewBox="0 0 171 65" fill="none" xmlns="http://www.w3.org/2000/svg">
<path fill-rule="evenodd" clip-rule="evenodd" d="M118.61 22.91C124.11 22.16 124.49 30.85 119.95 31.68C115.04 32.58 113.86 26.02 116.54 23.68C117.134 23.2157 117.857 22.9467 118.61 22.91Z" fill="#FF4100"/>
<path fill-rule="evenodd" clip-rule="evenodd" d="M118.19 37.46C118.28 37.46 118.3 37.57 118.4 37.57C118.99 39.3 118.92 41.09 119.33 42.73C120.17 46.08 122.02 49.26 126.25 49.23C127.788 49.185 129.285 48.7217 130.58 47.89C131.51 47.35 132.41 45.99 133.89 46.55C134.98 48.12 133.51 49.55 132.75 50.47C131.806 51.495 130.768 52.4291 129.65 53.26C127.57 54.91 124.65 57.36 120.77 57.08C114.5 56.62 113.5 49 115.1 42.63C115.57 40.77 116.61 38 118.19 37.46Z" fill="#FF4100"/>
<path fill-rule="evenodd" clip-rule="evenodd" d="M151.33 40.15C152.07 41.23 151.28 42.42 151.44 43.55C151.67 45.3 153.03 47.1 154.64 47.37C157.86 47.93 158.64 44.37 161.56 45.21C161.74 46.44 160.66 47.39 159.9 48.3C158.06 50.54 155.22 53.74 152.06 54.4C147.48 55.34 146.58 52.02 146.48 47.89C145.62 47.8 145.02 48.63 144.48 49.13C142.86 50.75 140.8 53.3 137.98 53.67C133.89 54.22 131.77 51.07 132.3 47.07C132.592 45.1827 133.222 43.3635 134.16 41.7C136.7 37.38 142.44 32.78 147.78 31.99C150.23 31.63 153.19 32.99 153.26 35.3C153.26 36.95 151.85 39.05 150.06 39.01C148.06 39.01 147.68 36.92 146.13 36.22C142.34 34.52 139.37 38.28 139.94 42.22C140.29 44.67 143.34 46.08 146.13 44.91C147.227 44.3589 148.103 43.4483 148.61 42.33C149.16 41.44 149.58 39.91 151.33 40.15Z" fill="#FF4100"/>
<path fill-rule="evenodd" clip-rule="evenodd" d="M117 39.08C118 41.18 116 42.58 114.5 43.51C113.709 43.9961 112.872 44.4015 112 44.72C111.085 44.959 110.209 45.3295 109.4 45.82C108.958 46.6443 108.622 47.5213 108.4 48.43C107.14 51.88 105.4 55.98 100.77 55.58C95.7701 55.14 94.9301 49.82 95.3401 43.96C94.6401 43.11 93.3401 43.35 93.2101 42.41C92.9701 41.15 94.6001 39.76 95.2101 38.87C96.0401 37.64 96.7401 35.87 98.7601 36.41C102.42 37.31 99.5201 46.62 105.35 46.68C106.43 46.68 107.22 46.13 107.16 45.09C107.16 44.44 105.71 43.56 105.16 42.93C104.16 41.75 102.82 39.93 103.46 37.93C104.356 35.5443 106.053 33.5437 108.26 32.27C109.46 31.72 109.46 34.21 109.64 35.2C110.018 36.4099 110.755 37.4762 111.754 38.2569C112.752 39.0375 113.965 39.4955 115.23 39.57C115.92 39.51 116.02 39 117 39.08Z" fill="#FF4100"/>
<path fill-rule="evenodd" clip-rule="evenodd" d="M80.5601 39.79C81.6601 39.49 82.3901 38.16 83.3401 37.2C84.5701 35.98 86.2601 34.2 88.9201 35.04C90.0801 35.38 90.5701 36.52 91.5001 37.31C91.774 37.1758 92.075 37.106 92.3801 37.106C92.6851 37.106 92.9861 37.1758 93.2601 37.31C93.6901 38.31 92.9201 39.15 92.4301 39.79C91.8959 40.5011 91.3075 41.1698 90.6701 41.79C89.6101 42.79 87.0001 45.42 84.7901 44.47C83.6701 43.99 83.2601 42.22 82.2101 42.1C79.0601 41.71 81.2101 46.84 81.5901 47.98C82.1501 49.5 83.2201 51.58 82.9301 53.04C82.6401 54.5 80.6401 55.44 78.9301 55.62C76.9301 55.83 74.3401 55.44 73.9301 53.97C73.6301 52.74 74.5801 50.48 74.9301 48.81C75.4901 46.4 76.9301 43.07 74.8301 42.1C73.4701 41.47 71.6301 42.61 70.0801 41.58C70.4501 39.31 73.8301 35.4 76.5801 34.46C77.1635 34.2703 77.7932 34.2782 78.3716 34.4825C78.9501 34.6868 79.4451 35.076 79.7801 35.59C80.3901 36.78 79.8301 38.58 80.5601 39.79Z" fill="#FF4100"/>
<path fill-rule="evenodd" clip-rule="evenodd" d="M36.93 56.48C41.65 56.13 44.82 54.3 48.09 52.39C49.0832 51.6117 50.2223 51.0405 51.44 50.71C52.64 51.86 51.72 52.65 50.88 53.32C45.09 57.95 38.08 60.32 29.39 62.52C24.3813 63.8612 19.2331 64.6129 14.05 64.76C8.25004 64.82 2.87004 63.85 0.93004 60.29C0.396994 59.2924 0.141442 58.17 0.190042 57.04C0.430042 55.04 3.28004 53.04 4.84004 51.92C5.32004 51.56 6.21004 50.75 6.84004 50.71C7.91004 50.64 9.72004 52.06 10.75 52.71C14.5497 55.1104 18.7341 56.8389 23.12 57.82C26.82 58.53 30.4 58.37 32.89 56.82C35.38 55.27 37.89 51.24 36.61 47.33C36.2462 46.399 35.7064 45.5468 35.02 44.82C32.27 41.65 27.21 39.57 22.75 37.19C18.47 34.91 13.75 32.19 12.42 27.7C10.88 22.52 14.32 18.36 16.89 15.43C21.14 10.57 26.67 7.03 32.89 4.27C36.2409 2.54338 39.8758 1.43563 43.62 1C48.12 0.690001 52.08 2 51.25 6.58C50.7441 8.69028 49.4439 10.5242 47.62 11.7C46.72 12.36 44.52 13.65 43.81 12.35C43.21 11.26 44.51 10.53 44.37 9.19C44.11 6.75 40.5 6.04 37.37 6.31C34.7043 6.58523 32.1169 7.373 29.75 8.63C26.97 9.99 23.46 12.52 21.65 15.51C20.962 16.589 20.49 17.7912 20.26 19.05C20.26 20.47 21.36 22.37 22.21 23.51C26.77 29.62 35.21 31.65 41 36.63C43.24 38.57 45.56 41.54 45.19 45.18C44.91 47.87 43.19 49.84 41.74 51.51C40.15 53.39 38.5 54.45 36.93 56.48Z" fill="#FF4100"/>
<path fill-rule="evenodd" clip-rule="evenodd" d="M58.79 48.11C60.44 51.6 65.79 51.84 68.64 49.5C70.13 48.27 70.8 46.28 72.83 46.34C73.16 48.11 71.77 49.57 70.83 50.71C68.16 54.11 64.34 58.08 58.36 58.06C53.55 58.06 50.53 55.31 50.92 49.78C51.2823 46.0659 52.6669 42.5248 54.92 39.55C56.62 37.14 59.74 33.34 63.66 33.13C66.78 32.97 66.82 35.55 65.99 38.06C64.66 42.22 61.22 45 58.79 48.11ZM61.67 39.83C61.75 38.58 61.33 37.71 60.37 37.69C57.15 37.63 56.49 43.47 57.86 46.25C59.5 45 61.5 42.51 61.67 39.83Z" fill="#FF4100"/>
<path d="M168.011 31.0966L167.19 33.4052H166.886L166.065 31.1025V33.4052H165.538V30.2588H166.194L167.038 32.5966L167.882 30.2588H168.538V33.4052H168.011V31.0966ZM165.075 30.7334H164.214V33.4052H163.681V30.7334H162.813V30.2588H165.075V30.7334Z" fill="#FF4100"/>
</svg>
