<svg xmlns="http://www.w3.org/2000/svg" viewBox="0 0 169.32 63.76"><defs><style>.cls-1,.cls-2{fill:#fff;}.cls-1{fill-rule:evenodd;}</style></defs><g id="Layer_2" data-name="Layer 2"><g id="_3._Apply_Page_Filled" data-name="3. Apply Page Filled"><path class="cls-1" d="M118.44,21.91c5.5-.75,5.88,7.94,1.34,8.77-4.91.9-6.08-5.66-3.4-7.95A3.65,3.65,0,0,1,118.44,21.91Z"/><path class="cls-1" d="M118,36.46c.08,0,.1.11.2.11.6,1.73.52,3.52.93,5.16.84,3.35,2.69,6.53,6.92,6.5a8.51,8.51,0,0,0,4.34-1.34c.93-.54,1.82-1.9,3.3-1.34,1.1,1.57-.38,3.05-1.13,3.92a22.85,22.85,0,0,1-3.1,2.79c-2.08,1.65-5,4.1-8.88,3.82-6.28-.46-7.31-8.12-5.68-14.45C115.41,39.77,116.45,37,118,36.46Z"/><path class="cls-1" d="M151.17,39.15c.74,1.08,0,2.27.1,3.4.24,1.75,1.6,3.55,3.2,3.82,3.23.56,4-3,6.92-2.16.18,1.23-.9,2.18-1.65,3.09-1.84,2.24-4.69,5.44-7.85,6.1-4.58.94-5.48-2.38-5.57-6.51-.87-.09-1.47.74-2,1.24-1.61,1.62-3.67,4.17-6.5,4.54-4.09.55-6.2-2.6-5.68-6.6A16.32,16.32,0,0,1,134,40.7c2.54-4.32,8.29-8.92,13.63-9.71,2.45-.36,5.4,1,5.47,3.31.05,1.65-1.41,3.75-3.2,3.71-2,0-2.38-2.09-3.92-2.79-3.8-1.7-6.76,2.06-6.2,6,.35,2.45,3.41,3.86,6.2,2.69a5.39,5.39,0,0,0,2.47-2.58C149,40.44,149.41,38.91,151.17,39.15Z"/><path class="cls-1" d="M116.83,38.08c1,2.1-1,3.5-2.5,4.43a13.53,13.53,0,0,1-2.5,1.21,9.71,9.71,0,0,0-2.59,1.1,10.68,10.68,0,0,0-1,2.61c-1.26,3.45-3,7.55-7.63,7.15-5-.44-5.83-5.76-5.42-11.62-.71-.85-1.95-.61-2.14-1.55-.24-1.26,1.4-2.65,2-3.54.83-1.23,1.53-3,3.56-2.46,3.65.9.76,10.21,6.58,10.27,1.09,0,1.87-.55,1.82-1.59,0-.65-1.45-1.53-2-2.16-1-1.18-2.34-3-1.69-5a11,11,0,0,1,4.79-5.66c1.21-.55,1.2,1.94,1.38,2.93a6.25,6.25,0,0,0,5.6,4.37C115.75,38.51,115.86,38,116.83,38.08Z"/><path class="cls-1" d="M80.39,38.79c1.1-.3,1.83-1.63,2.79-2.59,1.22-1.22,2.91-3,5.57-2.16,1.16.34,1.66,1.48,2.58,2.27a2,2,0,0,1,1.76,0c.44,1-.34,1.84-.83,2.48a17.13,17.13,0,0,1-1.75,2c-1.07,1-3.67,3.63-5.89,2.68C83.51,43,83.1,41.18,82,41.06c-3.15-.39-1,4.74-.62,5.88.57,1.52,1.64,3.6,1.35,5.06s-2.3,2.4-4,2.58c-2,.21-4.59-.18-5-1.65-.3-1.23.65-3.49,1-5.16.55-2.41,2-5.74-.11-6.71-1.36-.63-3.2.51-4.75-.52.38-2.27,3.76-6.18,6.51-7.12a2.79,2.79,0,0,1,3.2,1.13C80.22,35.78,79.66,37.58,80.39,38.79Z"/><path class="cls-1" d="M36.76,55.48c4.72-.35,7.9-2.18,11.16-4.09a9.44,9.44,0,0,1,3.35-1.68c1.21,1.15.28,1.94-.56,2.61-5.78,4.63-12.79,7-21.48,9.2a66.7,66.7,0,0,1-15.35,2.24c-5.8.06-11.18-.91-13.11-4.47A6.23,6.23,0,0,1,0,56c.25-2,3.1-3.95,4.65-5.12.49-.36,1.38-1.17,2-1.21,1.06-.07,2.88,1.35,3.9,2A39.36,39.36,0,0,0,22.9,56.78c3.7.71,7.29.55,9.77-1s5-5.58,3.72-9.49a7.75,7.75,0,0,0-1.58-2.51c-2.75-3.17-7.82-5.25-12.28-7.63-4.27-2.28-9-5-10.32-9.48-1.54-5.19,1.9-9.35,4.46-12.28,4.25-4.86,9.78-8.4,16-11.16A31.39,31.39,0,0,1,43.46,0C48-.27,51.92,1,51.09,5.62a8.51,8.51,0,0,1-3.63,5.12c-.91.66-3.1,1.95-3.82.65-.59-1.09.7-1.82.56-3.16-.25-2.44-3.87-3.15-7-2.88A20.92,20.92,0,0,0,29.6,7.67c-2.78,1.36-6.29,3.89-8.09,6.88a9.92,9.92,0,0,0-1.4,3.54c0,1.42,1.11,3.32,2,4.46,4.55,6.11,13,8.14,18.78,13.12,2.24,1.94,4.56,4.91,4.19,8.55-.27,2.69-2,4.66-3.44,6.33C40,52.39,38.34,53.45,36.76,55.48Z"/><path class="cls-1" d="M58.62,47.11c1.66,3.49,7.05,3.73,9.86,1.39,1.48-1.23,2.15-3.22,4.18-3.16.33,1.77-1,3.23-2,4.37-2.66,3.4-6.49,7.37-12.46,7.35-4.82,0-7.84-2.75-7.44-8.28a20.19,20.19,0,0,1,4-10.23c1.69-2.41,4.82-6.21,8.74-6.42,3.12-.16,3.16,2.42,2.32,4.93C64.49,41.22,61.06,44,58.62,47.11Zm2.88-8.28c.08-1.25-.33-2.12-1.3-2.14-3.22-.06-3.87,5.78-2.51,8.56C59.35,44,61.33,41.51,61.5,38.83Z"/><path class="cls-2" d="M165.14,30.71v.54h-1V34h-.65V31.25h-1v-.54ZM168.67,34l-.12-1.92c0-.25,0-.56,0-.91h0c-.09.29-.18.67-.28,1l-.59,1.82H167l-.58-1.86c-.06-.26-.16-.64-.23-.93h0c0,.3,0,.61,0,.91L166,34h-.63l.24-3.26h1l.56,1.6c.07.25.13.49.22.82h0c.08-.3.15-.57.22-.81l.57-1.61h.93l.26,3.26Z"/></g></g></svg>