<svg xmlns="http://www.w3.org/2000/svg" viewBox="0 0 256.64 2310.6"><defs><style>.cls-1{fill:#ff4100;}.cls-2{fill:#fff;}</style></defs><g id="Layer_2" data-name="Layer 2"><g id="_3._Apply_Page_Filled" data-name="3. Apply Page Filled"><rect class="cls-1" x="45.86" width="150" height="35"/><path class="cls-2" d="M72.34,21.08a5.45,5.45,0,0,0,2.68.74c1.51,0,2.39-.8,2.39-2s-.65-1.71-2.16-2.32c-1.85-.71-3.09-1.78-3.09-3.45,0-1.91,1.55-3.33,3.92-3.33a5.43,5.43,0,0,1,2.58.57l-.44,1.4a4.4,4.4,0,0,0-2.2-.56c-1.53,0-2.15.92-2.15,1.72,0,1.09.71,1.61,2.3,2.27,2,.84,3,1.87,3,3.57,0,1.92-1.42,3.52-4.21,3.52a6.14,6.14,0,0,1-3-.74Z"/><path class="cls-2" d="M90,23.07,86.25,10.93H88.1l1.72,5.83c.47,1.57.9,3.08,1.2,4.52h0c.31-1.43.77-3,1.26-4.51l1.85-5.84H96L91.91,23.07Z"/><path class="cls-2" d="M109.72,17.44H105.3v4.21h5v1.42h-6.66V10.93H110v1.42H105.3V16h4.42Z"/><path class="cls-2" d="M118.48,11.1a15.77,15.77,0,0,1,3-.26,4.91,4.91,0,0,1,3.45,1,3,3,0,0,1,1,2.34,3.2,3.2,0,0,1-2.22,3.09v0a3,3,0,0,1,1.74,2.47,22.63,22.63,0,0,0,.9,3.31h-1.75a16.18,16.18,0,0,1-.78-2.91c-.34-1.65-1-2.25-2.3-2.29h-1.26v5.2h-1.69Zm1.69,5.49h1.39c1.58,0,2.58-.89,2.58-2.24s-1-2.19-2.58-2.19a5.73,5.73,0,0,0-1.39.12Z"/><path class="cls-2" d="M136,10.93V23.07h-1.71V10.93Z"/><path class="cls-2" d="M153.76,22.55a10.35,10.35,0,0,1-3.54.64,5.91,5.91,0,0,1-4.34-1.55,6.28,6.28,0,0,1-1.66-4.54,5.94,5.94,0,0,1,6.32-6.29,7.05,7.05,0,0,1,2.88.53l-.4,1.39a5.69,5.69,0,0,0-2.51-.49c-2.65,0-4.51,1.68-4.51,4.77s1.75,4.77,4.3,4.77a4.35,4.35,0,0,0,1.81-.28V18h-2.25V16.62h3.9Z"/><path class="cls-2" d="M168.45,17.44H164v4.21H169v1.42h-6.65V10.93h6.39v1.42H164V16h4.42Z"/><path class="cls-2" d="M3.57,2196.75v13.48H1.21v-13.48Z"/><path class="cls-2" d="M18.23,2196.14v11.39c0,.94,0,2,.08,2.7H16.22l-.11-1.43h-.05a3.1,3.1,0,0,1-2.82,1.63c-2.2,0-3.8-2-3.8-5,0-3.31,1.86-5.16,4-5.16a2.65,2.65,0,0,1,2.42,1.21h0v-5.36Zm-2.36,8.31a3.41,3.41,0,0,0,0-.63,1.92,1.92,0,0,0-1.83-1.65c-1.43,0-2.16,1.44-2.16,3.22s.77,3.13,2.13,3.13a1.89,1.89,0,0,0,1.83-1.58,2.54,2.54,0,0,0,.08-.7Z"/><path class="cls-2" d="M22.41,2206a2.49,2.49,0,0,0,2.76,2.61,6.67,6.67,0,0,0,2.4-.42l.35,1.64a7.92,7.92,0,0,1-3.11.57c-3,0-4.67-1.91-4.67-4.9s1.6-5.22,4.42-5.22,3.86,2.38,3.86,4.65a5.31,5.31,0,0,1-.08,1.07Zm3.79-1.66c0-1.1-.41-2.41-1.79-2.41s-1.91,1.37-2,2.41Z"/><path class="cls-2" d="M36.8,2210a6.12,6.12,0,0,1-2.41.44c-2.83,0-4.67-1.88-4.67-5a4.84,4.84,0,0,1,5.05-5.15,5.33,5.33,0,0,1,2.08.4l-.4,1.8a3.71,3.71,0,0,0-1.61-.33c-1.74,0-2.73,1.41-2.72,3.19,0,2,1.16,3.17,2.72,3.17a4.17,4.17,0,0,0,1.67-.34Z"/><path class="cls-2" d="M38.45,2196.14h2.36v14.09H38.45Z"/><path class="cls-2" d="M48.39,2210.23l-.16-1.06h-.06a3.16,3.16,0,0,1-2.62,1.26,2.79,2.79,0,0,1-2.89-2.89c0-2.47,2.17-3.66,5.34-3.65v-.19c0-.76-.3-1.72-1.82-1.71a4.67,4.67,0,0,0-2.38.67l-.46-1.56a6.61,6.61,0,0,1,3.28-.81c2.93,0,3.75,1.89,3.75,4v3.62a15.55,15.55,0,0,0,.14,2.31Zm-.33-4.8c-1.46,0-3.08.31-3.08,1.86a1.27,1.27,0,0,0,1.3,1.43,1.77,1.77,0,0,0,1.72-1.28,1.81,1.81,0,0,0,.06-.52Z"/><path class="cls-2" d="M52.78,2203.51c0-1.19,0-2.16-.08-3h2.06l.09,1.74h.07a2.72,2.72,0,0,1,2.46-1.94,2.21,2.21,0,0,1,.54.05v2.26a3,3,0,0,0-.64,0,2.08,2.08,0,0,0-2.06,1.8,3.84,3.84,0,0,0-.07.8v5.08H52.78Z"/><path class="cls-2" d="M61,2206a2.49,2.49,0,0,0,2.76,2.61,6.67,6.67,0,0,0,2.4-.42l.35,1.64a7.92,7.92,0,0,1-3.11.57c-3,0-4.67-1.91-4.67-4.9s1.6-5.22,4.42-5.22,3.86,2.38,3.86,4.65a5.31,5.31,0,0,1-.08,1.07Zm3.79-1.66c0-1.1-.41-2.41-1.79-2.41s-1.91,1.37-2,2.41Z"/><path class="cls-2" d="M75.39,2197.76v2.73h2.2v1.75h-2.2v4.52c0,1.2.36,1.71,1.18,1.71a3.7,3.7,0,0,0,.86-.09l0,1.81a5.24,5.24,0,0,1-1.67.22,2.69,2.69,0,0,1-2-.74,3.76,3.76,0,0,1-.75-2.7v-4.73H71.73v-1.75h1.33v-2.16Z"/><path class="cls-2" d="M79.27,2196.14h2.36v5.59h0a3.33,3.33,0,0,1,1.11-1,3.14,3.14,0,0,1,1.57-.41c1.62,0,3.1,1.15,3.1,4.08v5.86H85.09v-5.65c0-1.3-.43-2.34-1.65-2.34a1.81,1.81,0,0,0-1.71,1.32,2.5,2.5,0,0,0-.1.74v5.93H79.27Z"/><path class="cls-2" d="M94.94,2210.23l-.15-1.06h-.06a3.16,3.16,0,0,1-2.62,1.26,2.79,2.79,0,0,1-2.89-2.89c0-2.47,2.17-3.66,5.34-3.65v-.19c0-.76-.3-1.72-1.82-1.71a4.65,4.65,0,0,0-2.38.67l-.46-1.56a6.61,6.61,0,0,1,3.28-.81c2.93,0,3.75,1.89,3.75,4v3.62a15.55,15.55,0,0,0,.14,2.31Zm-.32-4.8c-1.46,0-3.08.31-3.08,1.86a1.27,1.27,0,0,0,1.3,1.43,1.77,1.77,0,0,0,1.72-1.28,1.81,1.81,0,0,0,.06-.52Z"/><path class="cls-2" d="M102,2197.76v2.73h2.2v1.75H102v4.52c0,1.2.36,1.71,1.18,1.71a3.7,3.7,0,0,0,.86-.09l.05,1.81a5.24,5.24,0,0,1-1.67.22,2.69,2.69,0,0,1-2-.74,3.76,3.76,0,0,1-.75-2.7v-4.73H98.29v-1.75h1.33v-2.16Z"/><path class="cls-2" d="M114.74,2210.23l-.15-1.06h-.06a3.16,3.16,0,0,1-2.62,1.26,2.79,2.79,0,0,1-2.89-2.89c0-2.47,2.17-3.66,5.34-3.65v-.19c0-.76-.3-1.72-1.82-1.71a4.65,4.65,0,0,0-2.38.67l-.46-1.56a6.61,6.61,0,0,1,3.28-.81c2.93,0,3.75,1.89,3.75,4v3.62a15.55,15.55,0,0,0,.14,2.31Zm-.32-4.8c-1.46,0-3.08.31-3.08,1.86a1.27,1.27,0,0,0,1.3,1.43,1.77,1.77,0,0,0,1.72-1.28,1.81,1.81,0,0,0,.06-.52Z"/><path class="cls-2" d="M119.15,2196.14h2.36v14.09h-2.36Z"/><path class="cls-2" d="M124,2196.14h2.36v14.09H124Z"/><path class="cls-2" d="M135.19,2197.82a1.31,1.31,0,1,1-1.31-1.31A1.25,1.25,0,0,1,135.19,2197.82Zm-2.48,12.41v-9.74h2.36v9.74Z"/><path class="cls-2" d="M137.53,2203.34c0-1.12,0-2-.08-2.85h2.06l.12,1.37h.05a3.27,3.27,0,0,1,2.86-1.57c1.68,0,3.17,1.14,3.17,4v6h-2.37v-5.7c0-1.27-.42-2.3-1.64-2.3a1.82,1.82,0,0,0-1.7,1.37,2.73,2.73,0,0,0-.11.81v5.82h-2.36Z"/><path class="cls-2" d="M148.44,2210.23v-8h-1.31v-1.75h1.31v-.43a4.4,4.4,0,0,1,1.11-3.21,3.46,3.46,0,0,1,2.43-.92,4.6,4.6,0,0,1,1.52.24l-.21,1.83a2.5,2.5,0,0,0-1-.17c-1.15,0-1.52,1-1.52,2.15v.51h2v1.75h-2v8Z"/><path class="cls-2" d="M162.42,2205.29c0,3.68-2.36,5.14-4.55,5.14-2.54,0-4.45-1.84-4.45-5s2-5.13,4.59-5.13S162.42,2202.26,162.42,2205.29Zm-6.59.08c0,1.8.74,3.32,2.12,3.32s2.06-1.53,2.06-3.35c0-1.49-.54-3.3-2.06-3.3S155.83,2203.8,155.83,2205.37Z"/><path class="cls-2" d="M164.32,2203.51c0-1.19,0-2.16-.08-3h2.06l.09,1.74h.07a2.71,2.71,0,0,1,2.46-1.94,2.21,2.21,0,0,1,.54.05v2.26a3,3,0,0,0-.64,0,2.07,2.07,0,0,0-2.06,1.8,3.84,3.84,0,0,0-.07.8v5.08h-2.37Z"/><path class="cls-2" d="M171,2203.34c0-1.12,0-2-.08-2.85h2l.11,1.35h.05a3.15,3.15,0,0,1,2.78-1.55,2.58,2.58,0,0,1,2.52,1.68h0a3.7,3.7,0,0,1,1.12-1.17,3.17,3.17,0,0,1,1.79-.51c1.6,0,3,1.13,3,4v5.9H182v-5.54c0-1.49-.44-2.47-1.55-2.47a1.68,1.68,0,0,0-1.55,1.25,2.88,2.88,0,0,0-.11.81v5.95h-2.31v-5.81c0-1.22-.43-2.2-1.51-2.2a1.74,1.74,0,0,0-1.59,1.33,2.65,2.65,0,0,0-.11.81v5.87H171Z"/><path class="cls-2" d="M191.82,2210.23l-.15-1.06h-.06a3.17,3.17,0,0,1-2.63,1.26,2.78,2.78,0,0,1-2.88-2.89c0-2.47,2.17-3.66,5.34-3.65v-.19c0-.76-.3-1.72-1.82-1.71a4.65,4.65,0,0,0-2.38.67l-.46-1.56a6.57,6.57,0,0,1,3.27-.81c2.94,0,3.76,1.89,3.76,4v3.62a15.55,15.55,0,0,0,.14,2.31Zm-.32-4.8c-1.46,0-3.08.31-3.08,1.86a1.27,1.27,0,0,0,1.3,1.43,1.77,1.77,0,0,0,1.72-1.28,1.81,1.81,0,0,0,.06-.52Z"/><path class="cls-2" d="M198.82,2197.76v2.73H201v1.75h-2.21v4.52c0,1.2.37,1.71,1.18,1.71a3.73,3.73,0,0,0,.87-.09l0,1.81a5.29,5.29,0,0,1-1.67.22,2.69,2.69,0,0,1-2-.74,3.76,3.76,0,0,1-.76-2.7v-4.73h-1.32v-1.75h1.32v-2.16Z"/><path class="cls-2" d="M205.19,2197.82a1.26,1.26,0,0,1-1.34,1.3,1.24,1.24,0,0,1-1.27-1.3,1.31,1.31,0,1,1,2.61,0Zm-2.48,12.41v-9.74h2.36v9.74Z"/><path class="cls-2" d="M216,2205.29c0,3.68-2.36,5.14-4.55,5.14-2.54,0-4.45-1.84-4.45-5s2-5.13,4.59-5.13S216,2202.26,216,2205.29Zm-6.59.08c0,1.8.73,3.32,2.12,3.32s2.06-1.53,2.06-3.35c0-1.49-.54-3.3-2.07-3.3S209.39,2203.8,209.39,2205.37Z"/><path class="cls-2" d="M217.89,2203.34c0-1.12,0-2-.08-2.85h2.06l.11,1.37H220a3.27,3.27,0,0,1,2.86-1.57c1.68,0,3.17,1.14,3.17,4v6H223.7v-5.7c0-1.27-.42-2.3-1.64-2.3a1.82,1.82,0,0,0-1.7,1.37,2.73,2.73,0,0,0-.11.81v5.82h-2.36Z"/><path class="cls-2" d="M234.81,2197.82a1.26,1.26,0,0,1-1.34,1.3,1.24,1.24,0,0,1-1.27-1.3,1.31,1.31,0,1,1,2.61,0Zm-2.48,12.41v-9.74h2.36v9.74Z"/><path class="cls-2" d="M237.15,2203.34c0-1.12,0-2-.08-2.85h2.06l.11,1.37h.06a3.27,3.27,0,0,1,2.86-1.57c1.68,0,3.17,1.14,3.17,4v6H243v-5.7c0-1.27-.42-2.3-1.64-2.3a1.82,1.82,0,0,0-1.7,1.37,2.73,2.73,0,0,0-.11.81v5.82h-2.36Z"/><path class="cls-2" d="M1.09,2227.34c0-1.12,0-2-.08-2.85H3l.11,1.35H3.2A3.16,3.16,0,0,1,6,2224.29,2.57,2.57,0,0,1,8.5,2226h0a3.62,3.62,0,0,1,1.13-1.17,3.12,3.12,0,0,1,1.79-.51c1.59,0,3,1.13,3,4v5.9H12.15v-5.54c0-1.49-.44-2.47-1.55-2.47A1.68,1.68,0,0,0,9,2227.47a3.32,3.32,0,0,0-.1.81v5.95H6.62v-5.81c0-1.22-.42-2.2-1.51-2.2a1.76,1.76,0,0,0-1.59,1.33,2.65,2.65,0,0,0-.11.81v5.87H1.09Z"/><path class="cls-2" d="M18.12,2224.49l1.56,5.25c.18.62.36,1.31.49,1.86h0c.13-.54.29-1.24.46-1.87l1.35-5.24H24.5l-2.25,6.74c-1.1,3.18-1.93,4.94-3.06,6.05a4.81,4.81,0,0,1-2.41,1.32l-.59-2a4.53,4.53,0,0,0,2.59-2.27,1,1,0,0,0,.15-.43,1.2,1.2,0,0,0-.11-.45l-3.28-9Z"/><path class="cls-2" d="M34.75,2234.23l-.16-1.06h-.06a3.14,3.14,0,0,1-2.62,1.26,2.79,2.79,0,0,1-2.89-2.89c0-2.47,2.17-3.66,5.34-3.65v-.19c0-.76-.3-1.72-1.82-1.71a4.67,4.67,0,0,0-2.38.67l-.46-1.56a6.61,6.61,0,0,1,3.28-.81c2.94,0,3.75,1.89,3.75,4v3.62a14.2,14.2,0,0,0,.15,2.31Zm-.33-4.8c-1.46,0-3.08.31-3.08,1.86a1.27,1.27,0,0,0,1.3,1.43,1.77,1.77,0,0,0,1.72-1.28,1.81,1.81,0,0,0,.06-.52Z"/><path class="cls-2" d="M39.15,2227.67c0-1.28,0-2.29-.09-3.18h2.08l.12,1.4h0a3.28,3.28,0,0,1,3-1.6c2.14,0,3.74,2,3.74,5,0,3.53-2,5.17-4,5.17a2.77,2.77,0,0,1-2.42-1.22h0v4.95H39.15Zm2.35,2.64a3.08,3.08,0,0,0,.08.71,1.92,1.92,0,0,0,1.85,1.55c1.42,0,2.17-1.37,2.17-3.22s-.73-3.16-2.13-3.16a2,2,0,0,0-1.88,1.65,2.76,2.76,0,0,0-.09.65Z"/><path class="cls-2" d="M49.88,2227.67c0-1.28,0-2.29-.08-3.18h2.08l.12,1.4h0a3.28,3.28,0,0,1,3-1.6c2.14,0,3.74,2,3.74,5,0,3.53-2,5.17-4,5.17a2.77,2.77,0,0,1-2.42-1.22h0v4.95H49.88Zm2.36,2.64a3.08,3.08,0,0,0,.08.71,1.92,1.92,0,0,0,1.85,1.55c1.42,0,2.17-1.37,2.17-3.22s-.73-3.16-2.13-3.16a2,2,0,0,0-1.88,1.65,2.76,2.76,0,0,0-.09.65Z"/><path class="cls-2" d="M60.63,2220.14H63v14.09H60.63Z"/><path class="cls-2" d="M68,2221.82a1.31,1.31,0,1,1-1.3-1.31A1.25,1.25,0,0,1,68,2221.82Zm-2.48,12.41v-9.74h2.36v9.74Z"/><path class="cls-2" d="M76.84,2234a6.12,6.12,0,0,1-2.41.44c-2.83,0-4.67-1.88-4.67-5a4.84,4.84,0,0,1,5-5.15,5.33,5.33,0,0,1,2.08.4l-.4,1.8a3.71,3.71,0,0,0-1.61-.33c-1.73,0-2.73,1.41-2.72,3.19,0,2,1.16,3.17,2.72,3.17a4.17,4.17,0,0,0,1.67-.34Z"/><path class="cls-2" d="M83.65,2234.23l-.16-1.06h-.06a3.15,3.15,0,0,1-2.62,1.26,2.79,2.79,0,0,1-2.89-2.89c0-2.47,2.17-3.66,5.34-3.65v-.19c0-.76-.3-1.72-1.82-1.71a4.67,4.67,0,0,0-2.38.67l-.46-1.56a6.61,6.61,0,0,1,3.28-.81c2.93,0,3.75,1.89,3.75,4v3.62a15.55,15.55,0,0,0,.14,2.31Zm-.33-4.8c-1.46,0-3.08.31-3.08,1.86a1.27,1.27,0,0,0,1.3,1.43,1.77,1.77,0,0,0,1.72-1.28,1.81,1.81,0,0,0,.06-.52Z"/><path class="cls-2" d="M90.65,2221.76v2.73h2.2v1.75h-2.2v4.52c0,1.2.36,1.71,1.18,1.71a3.7,3.7,0,0,0,.86-.09l0,1.81a5.24,5.24,0,0,1-1.67.22,2.69,2.69,0,0,1-2-.74,3.76,3.76,0,0,1-.75-2.7v-4.73H87v-1.75h1.33v-2.16Z"/><path class="cls-2" d="M97,2221.82a1.31,1.31,0,1,1-1.3-1.31A1.25,1.25,0,0,1,97,2221.82Zm-2.48,12.41v-9.74h2.36v9.74Z"/><path class="cls-2" d="M107.81,2229.29c0,3.68-2.37,5.14-4.56,5.14-2.54,0-4.45-1.84-4.45-5s2-5.13,4.59-5.13S107.81,2226.26,107.81,2229.29Zm-6.6.08c0,1.8.74,3.32,2.12,3.32s2.06-1.53,2.06-3.35c0-1.49-.54-3.3-2.06-3.3S101.21,2227.8,101.21,2229.37Z"/><path class="cls-2" d="M109.71,2227.34c0-1.12,0-2-.08-2.85h2.06l.12,1.37h0a3.27,3.27,0,0,1,2.86-1.57c1.68,0,3.17,1.14,3.17,4v6h-2.36v-5.7c0-1.27-.43-2.3-1.65-2.3a1.8,1.8,0,0,0-1.69,1.37,2.43,2.43,0,0,0-.12.81v5.82h-2.36Z"/><path class="cls-2" d="M126.63,2221.82a1.31,1.31,0,1,1-1.3-1.31A1.25,1.25,0,0,1,126.63,2221.82Zm-2.48,12.41v-9.74h2.36v9.74Z"/><path class="cls-2" d="M128.84,2232a4.85,4.85,0,0,0,2.24.65c1,0,1.46-.44,1.46-1.1s-.36-1-1.47-1.47c-1.77-.71-2.48-1.72-2.48-2.82,0-1.71,1.37-3,3.48-3a5,5,0,0,1,2.37.55l-.47,1.68a3.84,3.84,0,0,0-1.84-.51c-.84,0-1.29.45-1.29,1s.4.89,1.54,1.39c1.63.67,2.41,1.59,2.42,3,0,1.83-1.39,3-3.74,3a5.55,5.55,0,0,1-2.7-.64Z"/><path class="cls-2" d="M143.25,2221.76v2.73h2.2v1.75h-2.2v4.52c0,1.2.36,1.71,1.18,1.71a3.7,3.7,0,0,0,.86-.09l.05,1.81a5.24,5.24,0,0,1-1.67.22,2.69,2.69,0,0,1-2-.74,3.76,3.76,0,0,1-.75-2.7v-4.73h-1.33v-1.75h1.33v-2.16Z"/><path class="cls-2" d="M147.12,2227.51c0-1.19,0-2.16-.08-3h2.06l.09,1.74h.07a2.72,2.72,0,0,1,2.46-1.94,2.21,2.21,0,0,1,.54.05v2.26a3,3,0,0,0-.64,0,2.07,2.07,0,0,0-2.06,1.8,3.84,3.84,0,0,0-.07.8v5.08h-2.37Z"/><path class="cls-2" d="M161.77,2231.34c0,1.13,0,2.09.08,2.89h-2.06l-.12-1.34h0a3.27,3.27,0,0,1-2.84,1.54c-1.78,0-3.12-1.15-3.12-4.14v-5.8H156v5.44c0,1.55.44,2.56,1.61,2.56a1.79,1.79,0,0,0,1.65-1.2,2.33,2.33,0,0,0,.13-.79v-6h2.36Z"/><path class="cls-2" d="M166,2230a2.49,2.49,0,0,0,2.76,2.61,6.67,6.67,0,0,0,2.4-.42l.35,1.64a7.94,7.94,0,0,1-3.12.57c-3,0-4.66-1.91-4.66-4.9s1.6-5.22,4.42-5.22,3.86,2.38,3.86,4.65a6.18,6.18,0,0,1-.08,1.07Zm3.79-1.66c0-1.1-.41-2.41-1.8-2.41s-1.9,1.37-2,2.41Z"/><path class="cls-2" d="M173.33,2232.89a1.46,1.46,0,0,1,1.46-1.56,1.55,1.55,0,1,1-1.46,1.56Z"/><path class="cls-2" d="M4.26,2048.77v-6.11L0,2033.94H2.92l1.58,3.75c.45,1.06.82,2,1.18,3h.05c.32-1,.71-2,1.16-3.06l1.56-3.72h2.87l-4.45,8.64v6.19Z"/><path class="cls-2" d="M12.83,2044.13a2.74,2.74,0,0,0,3,2.86,7.25,7.25,0,0,0,2.65-.46l.38,1.81a8.75,8.75,0,0,1-3.43.63c-3.26,0-5.13-2.1-5.13-5.4,0-3.13,1.77-5.74,4.86-5.74s4.25,2.62,4.25,5.12a6.29,6.29,0,0,1-.09,1.18ZM17,2042.3c0-1.21-.46-2.65-2-2.65s-2.09,1.51-2.19,2.65Z"/><path class="cls-2" d="M21.33,2046.36a5.22,5.22,0,0,0,2.47.72c1.08,0,1.61-.49,1.61-1.21s-.41-1.1-1.63-1.62c-1.94-.79-2.73-1.89-2.72-3.11,0-1.87,1.5-3.31,3.83-3.31a5.5,5.5,0,0,1,2.6.61l-.52,1.85a4.11,4.11,0,0,0-2-.57c-.92,0-1.42.5-1.42,1.13s.44,1,1.7,1.52c1.79.74,2.65,1.75,2.66,3.26,0,2-1.53,3.34-4.11,3.34a6.06,6.06,0,0,1-3-.71Z"/><path class="cls-2" d="M170.68,2048.77v-14.83h2.82l3.43,6.35a46.58,46.58,0,0,1,2.28,4.89h0c-.17-2-.24-4-.24-6.35v-4.88h2.37v14.83h-2.61l-3.46-6.46a45.56,45.56,0,0,1-2.35-5h-.06c.1,1.86.15,3.87.15,6.49v5Z"/><path class="cls-2" d="M193.45,2043.33c0,4.05-2.6,5.66-5,5.66-2.79,0-4.9-2-4.9-5.51s2.19-5.65,5.05-5.65S193.45,2040,193.45,2043.33Zm-7.25.09c0,2,.81,3.65,2.33,3.65s2.27-1.69,2.27-3.68c0-1.64-.6-3.63-2.27-3.63S186.2,2041.7,186.2,2043.42Z"/><path class="cls-2" d="M4.26,2134.77v-6.11L0,2119.94H2.92l1.58,3.75c.45,1.06.82,2,1.18,3h.05c.32-1,.71-2,1.16-3.06l1.56-3.72h2.87l-4.45,8.64v6.19Z"/><path class="cls-2" d="M12.83,2130.13a2.74,2.74,0,0,0,3,2.86,7.25,7.25,0,0,0,2.65-.46l.38,1.81a8.75,8.75,0,0,1-3.43.63c-3.26,0-5.13-2.1-5.13-5.4,0-3.13,1.77-5.74,4.86-5.74s4.25,2.62,4.25,5.12a6.29,6.29,0,0,1-.09,1.18ZM17,2128.3c0-1.21-.46-2.65-2-2.65s-2.09,1.51-2.19,2.65Z"/><path class="cls-2" d="M21.33,2132.36a5.22,5.22,0,0,0,2.47.72c1.08,0,1.61-.49,1.61-1.21s-.41-1.1-1.63-1.62c-1.94-.79-2.73-1.89-2.72-3.11,0-1.87,1.5-3.31,3.83-3.31a5.5,5.5,0,0,1,2.6.61l-.52,1.85a4.11,4.11,0,0,0-2-.57c-.92,0-1.42.5-1.42,1.13s.44,1,1.7,1.52c1.79.74,2.65,1.75,2.66,3.26,0,2-1.53,3.34-4.11,3.34a6.06,6.06,0,0,1-3-.71Z"/><path class="cls-2" d="M170.68,2134.77v-14.83h2.82l3.43,6.35a46.58,46.58,0,0,1,2.28,4.89h0c-.17-2-.24-4-.24-6.35v-4.88h2.37v14.83h-2.61l-3.46-6.46a45.56,45.56,0,0,1-2.35-5h-.06c.1,1.86.15,3.87.15,6.49v5Z"/><path class="cls-2" d="M193.45,2129.33c0,4.05-2.6,5.66-5,5.66-2.79,0-4.9-2-4.9-5.51s2.19-5.65,5.05-5.65S193.45,2126,193.45,2129.33Zm-7.25.09c0,2,.81,3.65,2.33,3.65s2.27-1.69,2.27-3.68c0-1.64-.6-3.63-2.27-3.63S186.2,2127.7,186.2,2129.42Z"/><path class="cls-2" d="M4.28,2268.75v13.48H1.91v-13.48Z"/><path class="cls-2" d="M15.77,2282.23l-.15-1.06h-.06a3.17,3.17,0,0,1-2.63,1.26,2.78,2.78,0,0,1-2.88-2.89c0-2.47,2.17-3.66,5.34-3.65v-.19c0-.76-.3-1.72-1.82-1.71a4.65,4.65,0,0,0-2.38.67l-.46-1.56a6.54,6.54,0,0,1,3.27-.81c2.94,0,3.76,1.89,3.76,4v3.62a15.55,15.55,0,0,0,.14,2.31Zm-.32-4.8c-1.46,0-3.08.31-3.08,1.86a1.27,1.27,0,0,0,1.3,1.43,1.77,1.77,0,0,0,1.72-1.28,1.81,1.81,0,0,0,.06-.52Z"/><path class="cls-2" d="M20.18,2268.14h2.36v14.09H20.18Z"/><path class="cls-2" d="M25,2268.14H27.4v14.09H25Z"/><path class="cls-2" d="M38.35,2277.29c0,3.68-2.36,5.14-4.55,5.14-2.54,0-4.45-1.84-4.45-5s2-5.13,4.59-5.13S38.35,2274.26,38.35,2277.29Zm-6.59.08c0,1.8.73,3.32,2.12,3.32s2.06-1.53,2.06-3.35c0-1.49-.54-3.3-2.07-3.3S31.76,2275.8,31.76,2277.37Z"/><path class="cls-2" d="M41.56,2272.49l.92,4.43c.21,1,.42,2.08.57,3.12h.05c.18-1,.46-2.12.72-3.1l1.19-4.45H46.9l1.13,4.34c.27,1.12.52,2.16.71,3.21h0c.13-1,.34-2.08.58-3.2l1-4.35h2.33l-2.89,9.74H47.65l-1.09-4a29,29,0,0,1-.66-3.08h0a24.19,24.19,0,0,1-.69,3.09l-1.16,4H41.85l-2.73-9.74Z"/><path class="cls-2" d="M58,2279.67a6.12,6.12,0,0,0,2.91.76c1.49,0,2.32-.75,2.32-1.85s-.68-1.64-2.2-2.31c-2-.84-3.32-2.07-3.32-3.86,0-2.18,1.72-3.85,4.53-3.85a6.19,6.19,0,0,1,2.86.62l-.53,1.94a5,5,0,0,0-2.38-.59c-1.46,0-2.1.83-2.1,1.63,0,1,.71,1.52,2.38,2.27,2.15,1,3.15,2.17,3.15,4,0,2.24-1.67,4-4.83,4a7.14,7.14,0,0,1-3.28-.76Z"/><path class="cls-2" d="M69.38,2278a2.49,2.49,0,0,0,2.75,2.61,6.68,6.68,0,0,0,2.41-.42l.35,1.64a7.94,7.94,0,0,1-3.12.57c-3,0-4.67-1.91-4.67-4.9s1.61-5.22,4.43-5.22,3.86,2.38,3.86,4.65a6.18,6.18,0,0,1-.08,1.07Zm3.79-1.66c0-1.1-.42-2.41-1.8-2.41s-1.9,1.37-2,2.41Z"/><path class="cls-2" d="M77.23,2275.51c0-1.19,0-2.16-.08-3h2l.1,1.74h.07a2.71,2.71,0,0,1,2.46-1.94,2.21,2.21,0,0,1,.54.05v2.26a3,3,0,0,0-.64,0,2.07,2.07,0,0,0-2.06,1.8,3.84,3.84,0,0,0-.07.8v5.08H77.23Z"/><path class="cls-2" d="M85.81,2272.49l1.39,4.92c.24.83.43,1.64.59,2.47h.06c.16-.83.36-1.62.58-2.47l1.37-4.92h2.44l-3.38,9.74H86.59l-3.32-9.74Z"/><path class="cls-2" d="M96.14,2269.82a1.27,1.27,0,0,1-1.34,1.3,1.25,1.25,0,0,1-1.28-1.3,1.31,1.31,0,1,1,2.62,0Zm-2.49,12.41v-9.74H96v9.74Z"/><path class="cls-2" d="M103.55,2282.23l-.15-1.06h-.06a3.17,3.17,0,0,1-2.63,1.26,2.78,2.78,0,0,1-2.88-2.89c0-2.47,2.16-3.66,5.34-3.65v-.19c0-.76-.3-1.72-1.82-1.71a4.65,4.65,0,0,0-2.38.67l-.47-1.56a6.61,6.61,0,0,1,3.28-.81c2.94,0,3.76,1.89,3.76,4v3.62a14.3,14.3,0,0,0,.14,2.31Zm-.32-4.8c-1.47,0-3.08.31-3.08,1.86a1.27,1.27,0,0,0,1.3,1.43,1.77,1.77,0,0,0,1.72-1.28,1.81,1.81,0,0,0,.06-.52Z"/><path class="cls-2" d="M114.37,2278.51l-1,3.72h-2.41l3.93-13.48h2.95l3.9,13.48h-2.48l-1.07-3.72Zm3.45-1.81-.91-3.25c-.23-.85-.44-1.87-.63-2.7h0c-.19.84-.39,1.88-.61,2.7l-.9,3.25Z"/><path class="cls-2" d="M123.51,2268.94a17.22,17.22,0,0,1,3.31-.28,5.89,5.89,0,0,1,3.67.88,2.91,2.91,0,0,1,1.26,2.49,3.13,3.13,0,0,1-2.17,2.93v.05a3.36,3.36,0,0,1,2.64,3.33,3.59,3.59,0,0,1-1.2,2.75c-.91.84-2.41,1.26-4.72,1.26a19.56,19.56,0,0,1-2.79-.17Zm2.35,5.35h1.07c1.52,0,2.45-.82,2.45-2s-.82-1.88-2.31-1.88a5.19,5.19,0,0,0-1.21.1Zm0,6.2a6.49,6.49,0,0,0,1.11.07c1.5,0,2.77-.65,2.77-2.28s-1.29-2.25-2.84-2.26h-1Z"/><path class="cls-2" d="M140.75,2269.76v2.73H143v1.75h-2.21v4.52c0,1.2.36,1.71,1.18,1.71a3.87,3.87,0,0,0,.87-.09l0,1.81a5.31,5.31,0,0,1-1.68.22,2.69,2.69,0,0,1-2-.74,3.76,3.76,0,0,1-.75-2.7v-4.73H137.1v-1.75h1.32v-2.16Z"/><path class="cls-2" d="M153,2277.29c0,3.68-2.37,5.14-4.55,5.14-2.55,0-4.46-1.84-4.46-5s2-5.13,4.59-5.13S153,2274.26,153,2277.29Zm-6.6.08c0,1.8.74,3.32,2.12,3.32s2.07-1.53,2.07-3.35c0-1.49-.55-3.3-2.07-3.3S146.37,2275.8,146.37,2277.37Z"/><path class="cls-2" d="M158.71,2275.51c0-1.19,0-2.16-.08-3h2.05l.1,1.74h.06a2.72,2.72,0,0,1,2.46-1.94,2.11,2.11,0,0,1,.54.05v2.26a2.91,2.91,0,0,0-.64,0,2.09,2.09,0,0,0-2.06,1.8,4.67,4.67,0,0,0-.07.8v5.08h-2.36Z"/><path class="cls-2" d="M166.88,2278a2.49,2.49,0,0,0,2.75,2.61,6.68,6.68,0,0,0,2.41-.42l.34,1.64a7.85,7.85,0,0,1-3.11.57c-3,0-4.67-1.91-4.67-4.9s1.61-5.22,4.42-5.22,3.86,2.38,3.86,4.65a6.44,6.44,0,0,1-.07,1.07Zm3.79-1.66c0-1.1-.42-2.41-1.8-2.41s-1.91,1.37-2,2.41Z"/><path class="cls-2" d="M183,2272.49c-.05.7-.09,1.55-.09,2.88v5.52c0,2.12-.4,3.45-1.33,4.32a5.08,5.08,0,0,1-3.51,1.15,6.57,6.57,0,0,1-3.07-.68l.5-1.81a5.39,5.39,0,0,0,2.54.65c1.51,0,2.53-.84,2.53-2.85v-.82h0a2.85,2.85,0,0,1-2.52,1.32c-2.28,0-3.78-2.05-3.78-4.75,0-3.27,1.91-5.13,4-5.13a2.73,2.73,0,0,1,2.52,1.42h0l.09-1.22Zm-2.45,3.78a2.88,2.88,0,0,0-.08-.68,1.81,1.81,0,0,0-1.74-1.44c-1.26,0-2.12,1.25-2.12,3.19s.77,3,2.11,3a1.78,1.78,0,0,0,1.72-1.35,3,3,0,0,0,.11-.85Z"/><path class="cls-2" d="M187.74,2269.82a1.27,1.27,0,0,1-1.34,1.3,1.25,1.25,0,0,1-1.28-1.3,1.31,1.31,0,0,1,2.62,0Zm-2.49,12.41v-9.74h2.37v9.74Z"/><path class="cls-2" d="M189.94,2280a4.85,4.85,0,0,0,2.24.65c1,0,1.47-.44,1.47-1.1s-.37-1-1.48-1.47c-1.77-.71-2.48-1.72-2.47-2.82,0-1.71,1.36-3,3.48-3a5.08,5.08,0,0,1,2.37.55l-.48,1.68a3.84,3.84,0,0,0-1.84-.51c-.83,0-1.28.45-1.28,1s.4.89,1.54,1.39c1.63.67,2.41,1.59,2.41,3,0,1.83-1.38,3-3.73,3a5.52,5.52,0,0,1-2.7-.64Z"/><path class="cls-2" d="M200.51,2269.76v2.73h2.21v1.75h-2.21v4.52c0,1.2.36,1.71,1.18,1.71a3.87,3.87,0,0,0,.87-.09l.05,1.81a5.31,5.31,0,0,1-1.68.22,2.69,2.69,0,0,1-2-.74,3.76,3.76,0,0,1-.75-2.7v-4.73h-1.32v-1.75h1.32v-2.16Z"/><path class="cls-2" d="M206,2278a2.5,2.5,0,0,0,2.76,2.61,6.68,6.68,0,0,0,2.41-.42l.34,1.64a7.85,7.85,0,0,1-3.11.57c-3,0-4.67-1.91-4.67-4.9s1.61-5.22,4.42-5.22,3.86,2.38,3.86,4.65a6.44,6.44,0,0,1-.07,1.07Zm3.8-1.66c0-1.1-.42-2.41-1.8-2.41s-1.91,1.37-2,2.41Z"/><path class="cls-2" d="M213.85,2275.51c0-1.19,0-2.16-.08-3h2l.1,1.74H216a2.72,2.72,0,0,1,2.46-1.94,2.16,2.16,0,0,1,.54.05v2.26a3,3,0,0,0-.64,0,2.09,2.09,0,0,0-2.06,1.8,4.67,4.67,0,0,0-.07.8v5.08h-2.36Z"/><path class="cls-2" d="M224.31,2275.34c0-1.12,0-2-.08-2.85h2l.11,1.35h.06a3.13,3.13,0,0,1,2.77-1.55,2.57,2.57,0,0,1,2.52,1.68h0a3.73,3.73,0,0,1,1.13-1.17,3.12,3.12,0,0,1,1.79-.51c1.59,0,3,1.13,3,4v5.9h-2.32v-5.54c0-1.49-.44-2.47-1.55-2.47a1.67,1.67,0,0,0-1.55,1.25,2.88,2.88,0,0,0-.11.81v5.95h-2.32v-5.81c0-1.22-.42-2.2-1.5-2.2a1.76,1.76,0,0,0-1.6,1.33,2.65,2.65,0,0,0-.11.81v5.87h-2.32Z"/><path class="cls-2" d="M241.35,2272.49l1.56,5.25c.17.62.35,1.31.48,1.86h.05c.13-.54.3-1.24.46-1.87l1.35-5.24h2.47l-2.25,6.74c-1.09,3.18-1.92,4.94-3.05,6.05a4.89,4.89,0,0,1-2.41,1.32l-.6-2a4.53,4.53,0,0,0,2.59-2.27.89.89,0,0,0,.15-.43,1.2,1.2,0,0,0-.11-.45l-3.28-9Z"/><path class="cls-2" d="M10,2292.14v11.39c0,.94,0,2,.08,2.7H8l-.11-1.43h0a3.1,3.1,0,0,1-2.82,1.63c-2.2,0-3.8-2-3.8-5,0-3.31,1.85-5.16,4-5.16a2.66,2.66,0,0,1,2.43,1.21h0v-5.36Zm-2.36,8.31a3.41,3.41,0,0,0,0-.63,1.92,1.92,0,0,0-1.83-1.65c-1.44,0-2.17,1.44-2.17,3.22s.78,3.13,2.13,3.13a1.89,1.89,0,0,0,1.84-1.58,2.54,2.54,0,0,0,.08-.7Z"/><path class="cls-2" d="M17.57,2306.23l-.15-1.06h-.06a3.17,3.17,0,0,1-2.63,1.26,2.78,2.78,0,0,1-2.88-2.89c0-2.47,2.17-3.66,5.34-3.65v-.19c0-.76-.3-1.72-1.82-1.71a4.65,4.65,0,0,0-2.38.67l-.46-1.56a6.54,6.54,0,0,1,3.27-.81c2.94,0,3.76,1.89,3.76,4v3.62a15.55,15.55,0,0,0,.14,2.31Zm-.32-4.8c-1.46,0-3.08.31-3.08,1.86a1.27,1.27,0,0,0,1.3,1.43,1.77,1.77,0,0,0,1.72-1.28,1.81,1.81,0,0,0,.06-.52Z"/><path class="cls-2" d="M24.57,2293.76v2.73h2.21v1.75H24.57v4.52c0,1.2.37,1.71,1.18,1.71a3.8,3.8,0,0,0,.87-.09l.05,1.81a5.29,5.29,0,0,1-1.67.22,2.69,2.69,0,0,1-2-.74,3.76,3.76,0,0,1-.76-2.7v-4.73H20.92v-1.75h1.32v-2.16Z"/><path class="cls-2" d="M33.53,2306.23l-.15-1.06h-.06a3.17,3.17,0,0,1-2.63,1.26,2.78,2.78,0,0,1-2.88-2.89c0-2.47,2.17-3.66,5.34-3.65v-.19c0-.76-.3-1.72-1.82-1.71a4.65,4.65,0,0,0-2.38.67l-.46-1.56a6.54,6.54,0,0,1,3.27-.81c2.94,0,3.76,1.89,3.76,4v3.62a15.55,15.55,0,0,0,.14,2.31Zm-.32-4.8c-1.46,0-3.08.31-3.08,1.86a1.27,1.27,0,0,0,1.3,1.43,1.77,1.77,0,0,0,1.72-1.28,1.81,1.81,0,0,0,.06-.52Z"/><path class="cls-2" d="M49.84,2303.34c0,1.13,0,2.09.08,2.89H47.86l-.12-1.34h-.05a3.29,3.29,0,0,1-2.84,1.54c-1.78,0-3.12-1.15-3.12-4.14v-5.8h2.36v5.44c0,1.55.44,2.56,1.61,2.56a1.79,1.79,0,0,0,1.65-1.2,2.33,2.33,0,0,0,.13-.79v-6h2.36Z"/><path class="cls-2" d="M52.3,2299.34c0-1.12,0-2-.08-2.85h2.06l.11,1.37h.06a3.27,3.27,0,0,1,2.86-1.57c1.67,0,3.17,1.14,3.17,4v6H58.11v-5.7c0-1.27-.42-2.3-1.64-2.3a1.82,1.82,0,0,0-1.7,1.37,2.73,2.73,0,0,0-.11.81v5.82H52.3Z"/><path class="cls-2" d="M71.14,2292.14v11.39c0,.94,0,2,.08,2.7H69.13L69,2304.8h0a3.12,3.12,0,0,1-2.82,1.63c-2.2,0-3.8-2-3.8-5,0-3.31,1.85-5.16,4-5.16a2.66,2.66,0,0,1,2.43,1.21h0v-5.36Zm-2.36,8.31a3.41,3.41,0,0,0,0-.63,1.92,1.92,0,0,0-1.83-1.65c-1.44,0-2.17,1.44-2.17,3.22s.78,3.13,2.13,3.13a1.89,1.89,0,0,0,1.84-1.58,2.54,2.54,0,0,0,.08-.7Z"/><path class="cls-2" d="M75.32,2302a2.49,2.49,0,0,0,2.75,2.61,6.68,6.68,0,0,0,2.41-.42l.35,1.64a7.94,7.94,0,0,1-3.12.57c-3,0-4.67-1.91-4.67-4.9s1.61-5.22,4.43-5.22,3.86,2.38,3.86,4.65a6.18,6.18,0,0,1-.08,1.07Zm3.79-1.66c0-1.1-.42-2.41-1.8-2.41s-1.9,1.37-2,2.41Z"/><path class="cls-2" d="M83.17,2299.51c0-1.19,0-2.16-.08-3h2l.1,1.74h.07a2.71,2.71,0,0,1,2.46-1.94,2.21,2.21,0,0,1,.54.05v2.26a3,3,0,0,0-.64,0,2.07,2.07,0,0,0-2.06,1.8,3.84,3.84,0,0,0-.07.8v5.08H83.17Z"/><path class="cls-2" d="M100.17,2306a6.18,6.18,0,0,1-2.42.44c-2.83,0-4.67-1.88-4.67-5a4.84,4.84,0,0,1,5.06-5.15,5.37,5.37,0,0,1,2.08.4l-.4,1.8a3.72,3.72,0,0,0-1.62-.33c-1.73,0-2.72,1.41-2.72,3.19,0,2,1.16,3.17,2.73,3.17a4.11,4.11,0,0,0,1.66-.34Z"/><path class="cls-2" d="M109.94,2303.34c0,1.13,0,2.09.08,2.89H108l-.12-1.34h0a3.29,3.29,0,0,1-2.84,1.54c-1.78,0-3.12-1.15-3.12-4.14v-5.8h2.36v5.44c0,1.55.43,2.56,1.61,2.56a1.77,1.77,0,0,0,1.64-1.2,2.33,2.33,0,0,0,.13-.79v-6h2.37Z"/><path class="cls-2" d="M112.39,2299.51c0-1.19,0-2.16-.08-3h2l.1,1.74h.07a2.71,2.71,0,0,1,2.46-1.94,2.21,2.21,0,0,1,.54.05v2.26a3.06,3.06,0,0,0-.65,0,2.07,2.07,0,0,0-2,1.8,3.84,3.84,0,0,0-.07.8v5.08h-2.37Z"/><path class="cls-2" d="M119,2299.51c0-1.19,0-2.16-.08-3h2l.1,1.74h.07a2.71,2.71,0,0,1,2.46-1.94,2.21,2.21,0,0,1,.54.05v2.26a3.06,3.06,0,0,0-.65,0,2.07,2.07,0,0,0-2,1.8,3.84,3.84,0,0,0-.07.8v5.08H119Z"/><path class="cls-2" d="M127.18,2302a2.49,2.49,0,0,0,2.75,2.61,6.68,6.68,0,0,0,2.41-.42l.34,1.64a7.85,7.85,0,0,1-3.11.57c-3,0-4.67-1.91-4.67-4.9s1.61-5.22,4.42-5.22,3.87,2.38,3.87,4.65a6.18,6.18,0,0,1-.08,1.07Zm3.79-1.66c0-1.1-.42-2.41-1.8-2.41s-1.9,1.37-2,2.41Z"/><path class="cls-2" d="M135,2299.34c0-1.12,0-2-.08-2.85H137l.11,1.37h.05a3.3,3.3,0,0,1,2.87-1.57c1.67,0,3.17,1.14,3.17,4v6h-2.37v-5.7c0-1.27-.42-2.3-1.64-2.3a1.82,1.82,0,0,0-1.7,1.37,2.73,2.73,0,0,0-.11.81v5.82H135Z"/><path class="cls-2" d="M148.27,2293.76v2.73h2.21v1.75h-2.21v4.52c0,1.2.36,1.71,1.18,1.71a3.87,3.87,0,0,0,.87-.09l.05,1.81a5.31,5.31,0,0,1-1.68.22,2.65,2.65,0,0,1-2-.74,3.71,3.71,0,0,1-.76-2.7v-4.73h-1.32v-1.75h1.32v-2.16Z"/><path class="cls-2" d="M156,2299.67c0-1.28,0-2.29-.08-3.18H158l.12,1.4h0a3.3,3.3,0,0,1,3-1.6c2.15,0,3.74,2,3.74,5,0,3.53-2,5.17-4,5.17a2.75,2.75,0,0,1-2.41-1.22h0v4.95H156Zm2.36,2.64a3.08,3.08,0,0,0,.08.71,1.91,1.91,0,0,0,1.84,1.55c1.42,0,2.17-1.37,2.17-3.22s-.72-3.16-2.12-3.16a2,2,0,0,0-1.88,1.65,2.32,2.32,0,0,0-.09.65Z"/><path class="cls-2" d="M166.73,2299.51c0-1.19,0-2.16-.08-3h2l.1,1.74h.07a2.71,2.71,0,0,1,2.46-1.94,2.21,2.21,0,0,1,.54.05v2.26a3.06,3.06,0,0,0-.65,0,2.07,2.07,0,0,0-2.05,1.8,3.8,3.8,0,0,0-.08.8v5.08h-2.36Z"/><path class="cls-2" d="M175.84,2293.82a1.27,1.27,0,0,1-1.34,1.3,1.25,1.25,0,0,1-1.28-1.3,1.31,1.31,0,1,1,2.62,0Zm-2.49,12.41v-9.74h2.37v9.74Z"/><path class="cls-2" d="M179.69,2296.49l1.39,4.92c.24.83.43,1.64.59,2.47h.06c.16-.83.36-1.62.58-2.47l1.37-4.92h2.44l-3.38,9.74h-2.28l-3.31-9.74Z"/><path class="cls-2" d="M192.47,2306.23l-.16-1.06h-.05a3.17,3.17,0,0,1-2.63,1.26,2.78,2.78,0,0,1-2.88-2.89c0-2.47,2.16-3.66,5.34-3.65v-.19c0-.76-.3-1.72-1.83-1.71a4.64,4.64,0,0,0-2.37.67l-.47-1.56a6.61,6.61,0,0,1,3.28-.81c2.94,0,3.76,1.89,3.76,4v3.62a14.3,14.3,0,0,0,.14,2.31Zm-.32-4.8c-1.47,0-3.08.31-3.08,1.86a1.27,1.27,0,0,0,1.3,1.43,1.75,1.75,0,0,0,1.71-1.28,1.81,1.81,0,0,0,.07-.52Z"/><path class="cls-2" d="M203.41,2306a6.22,6.22,0,0,1-2.42.44c-2.83,0-4.67-1.88-4.67-5a4.84,4.84,0,0,1,5.05-5.15,5.43,5.43,0,0,1,2.09.4l-.4,1.8a3.76,3.76,0,0,0-1.62-.33c-1.73,0-2.72,1.41-2.72,3.19,0,2,1.16,3.17,2.73,3.17a4.11,4.11,0,0,0,1.66-.34Z"/><path class="cls-2" d="M207,2296.49l1.56,5.25c.18.62.35,1.31.48,1.86h0c.14-.54.3-1.24.46-1.87l1.36-5.24h2.46l-2.25,6.74c-1.09,3.18-1.92,4.94-3,6.05a4.89,4.89,0,0,1-2.41,1.32l-.6-2a4.27,4.27,0,0,0,1.4-.77,4.33,4.33,0,0,0,1.19-1.5.89.89,0,0,0,.15-.43,1.2,1.2,0,0,0-.11-.45l-3.28-9Z"/><path class="cls-2" d="M218.49,2292.14h2.37v14.09h-2.37Z"/><path class="cls-2" d="M228.43,2306.23l-.16-1.06h-.05a3.17,3.17,0,0,1-2.63,1.26,2.78,2.78,0,0,1-2.88-2.89c0-2.47,2.16-3.66,5.34-3.65v-.19c0-.76-.3-1.72-1.83-1.71a4.64,4.64,0,0,0-2.37.67l-.47-1.56a6.61,6.61,0,0,1,3.28-.81c2.94,0,3.76,1.89,3.76,4v3.62a14.3,14.3,0,0,0,.14,2.31Zm-.32-4.8c-1.47,0-3.08.31-3.08,1.86a1.27,1.27,0,0,0,1.3,1.43,1.77,1.77,0,0,0,1.72-1.28,2.24,2.24,0,0,0,.06-.52Z"/><path class="cls-2" d="M234.07,2296.49l.93,4.43c.21,1,.41,2.08.56,3.12h.06c.18-1,.46-2.12.72-3.1l1.18-4.45h1.89l1.13,4.34c.28,1.12.53,2.16.72,3.21h.05c.13-1,.33-2.08.58-3.2l1-4.35h2.32l-2.88,9.74h-2.14l-1.09-4a29,29,0,0,1-.67-3.08h0a26,26,0,0,1-.69,3.09l-1.16,4h-2.15l-2.74-9.74Z"/><path class="cls-2" d="M246.34,2304a4.85,4.85,0,0,0,2.24.65c1,0,1.47-.44,1.47-1.1s-.37-1-1.48-1.47c-1.76-.71-2.48-1.72-2.47-2.82,0-1.71,1.36-3,3.48-3a5,5,0,0,1,2.37.55l-.48,1.68a3.84,3.84,0,0,0-1.84-.51c-.83,0-1.28.45-1.28,1s.4.89,1.54,1.39c1.63.67,2.41,1.59,2.41,3,0,1.83-1.38,3-3.73,3a5.55,5.55,0,0,1-2.7-.64Z"/><path class="cls-2" d="M253.73,2304.89a1.47,1.47,0,0,1,1.46-1.56,1.55,1.55,0,1,1-1.46,1.56Z"/></g></g></svg>