<svg width="42" height="43" viewBox="0 0 42 43" fill="none" xmlns="http://www.w3.org/2000/svg">
<path d="M20.9999 42.28C32.3439 42.28 41.5399 33.0839 41.5399 21.74C41.5399 10.3961 32.3439 1.19995 20.9999 1.19995C9.65601 1.19995 0.459961 10.3961 0.459961 21.74C0.459961 33.0839 9.65601 42.28 20.9999 42.28Z" fill="#FF4100"/>
<path d="M21 1.65991C24.9715 1.65991 28.8537 2.83777 32.1558 5.04419C35.458 7.25061 38.0317 10.3865 39.5515 14.0557C41.0713 17.7248 41.469 21.7623 40.6942 25.6575C39.9194 29.5526 38.007 33.1305 35.1987 35.9387C32.3905 38.747 28.8126 40.6593 24.9174 41.4341C21.0223 42.2089 16.9849 41.8113 13.3158 40.2915C9.64661 38.7717 6.51051 36.1979 4.3041 32.8958C2.09768 29.5936 0.920002 25.7114 0.920002 21.74C0.927937 16.4169 3.04607 11.3141 6.81008 7.55005C10.5741 3.78604 15.6769 1.66785 21 1.65991ZM21 0.73999C16.8466 0.73999 12.7865 1.97154 9.33303 4.27905C5.87959 6.58656 3.18797 9.86637 1.59853 13.7036C0.00908899 17.5409 -0.406768 21.7633 0.403522 25.8369C1.21381 29.9105 3.21387 33.6525 6.15078 36.5894C9.08768 39.5263 12.8295 41.5261 16.9031 42.3364C20.9767 43.1467 25.1991 42.7308 29.0364 41.1414C32.8736 39.5519 36.1534 36.8604 38.4609 33.407C40.7684 29.9536 42 25.8934 42 21.74C42 16.1704 39.7875 10.8291 35.8493 6.89087C31.911 2.95261 26.5696 0.73999 21 0.73999Z" fill="white"/>
<path d="M10.52 25.5L21.07 14.95L31.62 25.5" stroke="white" stroke-width="4"/>
</svg>
